<?xml version="1.0" encoding="utf-8"?>
<!-- Generator: Adobe Illustrator 17.0.0, SVG Export Plug-In . SVG Version: 6.00 Build 0)  -->
<!DOCTYPE svg PUBLIC "-//W3C//DTD SVG 1.1//EN" "http://www.w3.org/Graphics/SVG/1.1/DTD/svg11.dtd">
<svg version="1.1" id="Warstwa_1" xmlns="http://www.w3.org/2000/svg" xmlns:xlink="http://www.w3.org/1999/xlink" x="0px" y="0px"
	 width="366px" height="540px" viewBox="0 0 366 540" enable-background="new 0 0 366 540" xml:space="preserve">
<g id="Warstwa_5">
</g>
<g>
	<polygon fill="none" points="171.314,188.327 171.302,188.328 171.302,188.328 	"/>
	<path fill="none" d="M170.476,188.365C170.477,188.365,170.477,188.365,170.476,188.365c-0.052,0.004-0.107,0.003-0.16,0.007
		C170.369,188.368,170.423,188.369,170.476,188.365z"/>
	<path fill="none" d="M164.184,190.609C164.184,190.609,164.183,190.609,164.184,190.609c0.256-0.186,0.519-0.364,0.793-0.53
		c-0.001,0-0.001,0.001-0.002,0.001C164.702,190.246,164.439,190.423,164.184,190.609z"/>
	<path fill="none" d="M170.526,188.363c0.217-0.014,0.435-0.026,0.656-0.03c0.04-0.001,0.079-0.004,0.118-0.005l0,0
		C171.039,188.329,170.783,188.345,170.526,188.363z"/>
	<path fill="none" d="M165.51,189.786c0.097-0.052,0.194-0.105,0.29-0.158c-0.197,0.098-0.389,0.201-0.578,0.31
		c0.029-0.014,0.058-0.027,0.086-0.042C165.375,189.858,165.443,189.823,165.51,189.786z"/>
	<path fill="none" d="M170.034,188.4c-0.11,0.011-0.222,0.019-0.332,0.033c0.057-0.007,0.117-0.005,0.173-0.011
		C169.929,188.416,169.981,188.406,170.034,188.4z"/>
	<path fill="none" d="M169.21,188.513c0.087-0.015,0.176-0.023,0.264-0.036c0.07-0.011,0.136-0.032,0.206-0.041
		C169.521,188.456,169.366,188.486,169.21,188.513z"/>
	<path fill="none" d="M171.329,188.327h0.001c-0.005,0-0.01,0.001-0.015,0.001c0.001,0,0.001,0,0.002,0
		C171.32,188.327,171.324,188.327,171.329,188.327z"/>
	<path fill="none" d="M177.547,350.934c0.056-0.005,0.109-0.017,0.165-0.022h-0.001
		C177.655,350.917,177.602,350.929,177.547,350.934z"/>
	<path fill="none" d="M176.937,350.961c-0.129,0.006-0.258,0.013-0.387,0.018c0.22-0.004,0.438-0.013,0.654-0.03
		C177.115,350.953,177.026,350.957,176.937,350.961z"/>
	<path fill="none" d="M178.543,350.798c-0.088,0.015-0.179,0.023-0.267,0.036c-0.071,0.011-0.137,0.032-0.208,0.042
		C178.228,350.855,178.385,350.825,178.543,350.798z"/>
	<path fill="none" d="M178.676,350.78c0.022-0.004,0.042-0.01,0.064-0.015h-0.001C178.717,350.769,178.697,350.776,178.676,350.78z"
		/>
	<polygon fill="none" points="176.435,350.984 176.435,350.984 176.435,350.984 	"/>
	<path fill="none" d="M180.813,350.186c0.023-0.009,0.045-0.02,0.068-0.029c0,0-0.001,0-0.001,0.001
		C180.857,350.166,180.836,350.178,180.813,350.186z"/>
	<polygon fill="none" points="176.429,350.984 176.422,350.984 176.418,350.984 	"/>
	<path fill="none" d="M160.202,196.45c-0.007,0.031-0.014,0.063-0.02,0.094c0.006-0.027,0.011-0.055,0.017-0.082
		C160.2,196.458,160.201,196.454,160.202,196.45z"/>
	<path fill="none" d="M161.855,192.91c-0.002,0.002-0.003,0.004-0.005,0.007c-0.166,0.225-0.323,0.455-0.469,0.692
		c-0.001,0.002-0.002,0.003-0.003,0.005C161.526,193.373,161.686,193.139,161.855,192.91z"/>
	<path fill="none" d="M161.191,193.945c-0.005,0.009-0.011,0.019-0.016,0.028c-0.071,0.127-0.141,0.254-0.206,0.384
		c-0.001,0.003-0.002,0.005-0.003,0.008C161.037,194.223,161.113,194.084,161.191,193.945z"/>
	<path fill="none" d="M160.641,195.096c-0.003,0.008-0.007,0.015-0.01,0.023c-0.03,0.075-0.063,0.148-0.091,0.224
		c-0.001,0.003-0.002,0.006-0.003,0.009C160.569,195.265,160.607,195.181,160.641,195.096z"/>
	<path fill="none" d="M160.858,194.565c0.002-0.005,0.005-0.01,0.007-0.015c-0.005,0.011-0.011,0.022-0.016,0.033
		c0.002-0.003,0.003-0.007,0.005-0.01C160.856,194.571,160.857,194.568,160.858,194.565z"/>
	<path fill="none" d="M166.934,189.125c-0.023,0.009-0.045,0.021-0.069,0.03l0,0C166.889,189.145,166.911,189.134,166.934,189.125z"
		/>
	<path fill="none" d="M156.232,95.826c0,2.857-1.283,5.481-3.35,7.391c2.068-1.911,3.352-4.536,3.352-7.393
		c0-5.714-5.134-10.5-11.409-10.5h-18.853c-6.275,0-11.409-4.286-11.409-10c0-2.499,0.982-4.726,2.613-6.439
		c-1.632,1.714-2.615,3.941-2.615,6.441c0,5.714,5.134,10,11.409,10h18.853C151.098,85.326,156.232,90.112,156.232,95.826z"/>
	<path fill="none" d="M162.029,192.685c-0.002,0.003-0.005,0.006-0.007,0.009c0.146-0.186,0.297-0.369,0.456-0.545
		c-0.002,0.002-0.004,0.005-0.007,0.007C162.318,192.327,162.171,192.504,162.029,192.685z"/>
	<path fill="none" d="M159.955,198.592c0-0.003,0-0.006,0-0.01c0-0.041,0.006-0.081,0.007-0.121c0,0.037-0.007,0.073-0.007,0.11
		c0-0.01,0.001-0.02,0.001-0.03c0,0.014-0.002,0.027-0.002,0.041C159.954,198.585,159.954,198.588,159.955,198.592
		c-0.001,0.653,0.073,1.287,0.2,1.905c0.303,1.477,0.952,2.84,1.865,4.02c0.022,0,0.045,0.001,0.067,0.001
		c-0.94-1.181-1.614-2.544-1.931-4.021C160.029,199.879,159.955,199.244,159.955,198.592z"/>
	<path fill="none" d="M162.63,191.979c-0.001,0.001-0.001,0.002-0.002,0.002c0.438-0.468,0.92-0.9,1.443-1.29
		c-0.001,0.001-0.002,0.001-0.002,0.002C163.547,191.082,163.066,191.513,162.63,191.979z"/>
	<path fill="none" d="M160.02,197.495c0-0.003,0-0.006,0.001-0.009c-0.004,0.037-0.007,0.075-0.011,0.112
		c0.001-0.005,0.001-0.01,0.002-0.015C160.014,197.553,160.016,197.524,160.02,197.495z"/>
	<path fill="none" d="M178.089,350.86c-0.068,0.009-0.136,0.02-0.205,0.028l0,0C177.953,350.879,178.021,350.869,178.089,350.86z"/>
	<path fill="none" d="M160.303,196.099c-0.003,0.012-0.008,0.023-0.011,0.035c-0.023,0.085-0.052,0.168-0.073,0.254
		c-0.001,0.003-0.001,0.006-0.002,0.009C160.242,196.296,160.276,196.199,160.303,196.099z"/>
	<path fill="none" d="M160.08,197.14c-0.003,0.02-0.008,0.04-0.011,0.061c-0.008,0.055-0.021,0.109-0.028,0.164
		c-0.001,0.008-0.002,0.016-0.003,0.023C160.048,197.305,160.067,197.224,160.08,197.14z"/>
	<path fill="none" d="M160.04,197.352c0.001-0.009,0.002-0.019,0.004-0.028c-0.007,0.054-0.017,0.107-0.024,0.162
		c0.001-0.006,0.002-0.011,0.003-0.017C160.028,197.429,160.035,197.391,160.04,197.352z"/>
	<path fill="none" d="M177.712,350.911c0.112-0.011,0.225-0.019,0.336-0.033c-0.057,0.008-0.118,0.005-0.176,0.012
		C177.818,350.896,177.766,350.905,177.712,350.911z"/>
	<path fill="none" d="M187.445,343.213c0.003-0.012,0.008-0.024,0.011-0.036c0.023-0.085,0.052-0.168,0.073-0.253
		c0.001-0.003,0.001-0.006,0.002-0.01C187.506,343.015,187.472,343.113,187.445,343.213z"/>
	<path fill="none" d="M187.107,344.216c0.003-0.008,0.008-0.016,0.011-0.024c0.03-0.075,0.063-0.148,0.091-0.223
		c0.001-0.003,0.002-0.006,0.003-0.01C187.179,344.046,187.141,344.13,187.107,344.216z"/>
	<path fill="none" d="M182.774,349.231c0.272-0.165,0.535-0.343,0.789-0.528c0,0,0.001-0.001,0.002-0.001
		c-0.257,0.187-0.521,0.366-0.796,0.532C182.771,349.233,182.773,349.232,182.774,349.231z"/>
	<path fill="none" d="M182.742,349.251L182.742,349.251c-0.087,0.053-0.181,0.097-0.27,0.147
		C182.561,349.349,182.654,349.304,182.742,349.251z"/>
	<path fill="none" d="M182.439,349.416L182.439,349.416c-0.159,0.089-0.32,0.177-0.483,0.262c0.194-0.097,0.384-0.198,0.57-0.305
		C182.497,349.387,182.467,349.4,182.439,349.416L182.439,349.416z"/>
	<path fill="none" d="M185.893,346.4c0.002-0.002,0.004-0.004,0.005-0.007c0.166-0.225,0.323-0.455,0.469-0.691
		c0.001-0.002,0.002-0.004,0.003-0.006C186.222,345.938,186.062,346.172,185.893,346.4z"/>
	<path fill="none" d="M183.68,348.617c0.521-0.389,1.001-0.819,1.438-1.285c0.001-0.001,0.002-0.002,0.003-0.003
		c-0.438,0.468-0.921,0.9-1.444,1.291C183.678,348.619,183.679,348.618,183.68,348.617z"/>
	<path fill="none" d="M186.557,345.365c0.006-0.01,0.012-0.021,0.017-0.031c0.07-0.126,0.14-0.252,0.204-0.38
		c0.001-0.003,0.002-0.005,0.004-0.008C186.711,345.088,186.635,345.227,186.557,345.365z"/>
	<path fill="none" d="M185.728,334.794c-0.022,0-0.045-0.001-0.067-0.001c0.94,1.181,1.614,2.544,1.931,4.021
		c0.127,0.618,0.201,1.253,0.201,1.905c0,0.003,0,0.006,0,0.01c0,0.041-0.006,0.081-0.007,0.121c0-0.037,0.007-0.073,0.007-0.11
		c0,0.01-0.001,0.02-0.001,0.03c0-0.014,0.002-0.027,0.002-0.041c0-0.003,0-0.006,0-0.01c0-0.653-0.074-1.287-0.201-1.905
		C187.29,337.336,186.641,335.974,185.728,334.794z"/>
	<path fill="none" d="M221.778,453.985h-18.853c-6.275,0-11.409-4.786-11.409-10.5c0-2.857,1.283-5.481,3.35-7.391
		c-2.068,1.911-3.352,4.536-3.352,7.393c0,5.714,5.134,10.5,11.409,10.5h18.853c6.275,0,11.409,4.286,11.409,10
		c0,2.5-0.983,4.726-2.613,6.44c1.632-1.714,2.615-3.941,2.615-6.442C233.187,458.271,228.053,453.985,221.778,453.985z"/>
	<path fill="none" d="M185.277,347.155c0.154-0.172,0.301-0.349,0.442-0.529c0.002-0.003,0.005-0.006,0.007-0.009
		c-0.146,0.187-0.297,0.369-0.456,0.546C185.272,347.161,185.274,347.158,185.277,347.155z"/>
	<path fill="none" d="M187.729,341.816c0,0.003,0,0.006-0.001,0.009c0.004-0.037,0.007-0.075,0.011-0.112
		c-0.001,0.005-0.001,0.01-0.002,0.015C187.734,341.758,187.732,341.787,187.729,341.816z"/>
	<path fill="none" d="M187.668,342.171c0.003-0.021,0.008-0.041,0.011-0.061c0.008-0.055,0.021-0.108,0.028-0.164
		c0.001-0.008,0.002-0.016,0.003-0.024C187.7,342.006,187.681,342.087,187.668,342.171z"/>
	<path fill="none" d="M187.708,341.959c-0.001,0.009-0.002,0.019-0.004,0.028c0.007-0.054,0.017-0.108,0.024-0.162
		c-0.001,0.006-0.002,0.011-0.003,0.017C187.72,341.882,187.713,341.92,187.708,341.959z"/>
	<path fill="#2A2F8D" d="M160.22,196.388c-0.001,0.005-0.003,0.01-0.004,0.015c-0.001,0.003-0.001,0.006-0.002,0.009
		c0.001-0.005,0.003-0.01,0.004-0.015C160.219,196.394,160.219,196.391,160.22,196.388z"/>
	<path fill="#2A2F8D" d="M159.962,198.461c0.001-0.115,0.014-0.227,0.019-0.341c-0.003,0.061-0.009,0.121-0.011,0.182
		c-0.002,0.081-0.013,0.159-0.013,0.24c0,0.01-0.001,0.02-0.001,0.03C159.955,198.534,159.961,198.498,159.962,198.461z"/>
	<path fill="#2A2F8D" d="M160.096,197.042c-0.003,0.02-0.008,0.04-0.011,0.06c-0.005,0.033-0.012,0.066-0.017,0.099
		c0.003-0.021,0.008-0.04,0.011-0.061C160.085,197.107,160.091,197.075,160.096,197.042z"/>
	<path fill="#2A2F8D" d="M160.969,194.357c-0.003,0.006-0.006,0.011-0.009,0.016c-0.001,0.003-0.002,0.005-0.003,0.008
		c0.003-0.005,0.006-0.011,0.009-0.016C160.967,194.363,160.968,194.36,160.969,194.357z"/>
	<path fill="#2A2F8D" d="M161.233,193.867c-0.006,0.01-0.011,0.02-0.016,0.029c-0.014,0.025-0.027,0.051-0.041,0.077
		c0.005-0.009,0.011-0.019,0.016-0.028C161.206,193.919,161.219,193.893,161.233,193.867z"/>
	<path fill="#2A2F8D" d="M160.317,196.05c-0.003,0.012-0.008,0.023-0.011,0.034c-0.005,0.017-0.01,0.033-0.014,0.049
		c0.003-0.012,0.008-0.023,0.011-0.035C160.308,196.083,160.313,196.066,160.317,196.05z"/>
	<polygon fill="#2A2F8D" points="160.54,195.343 160.534,195.356 160.532,195.365 160.537,195.352 	"/>
	<path fill="#2A2F8D" d="M160.655,195.062c-0.003,0.008-0.007,0.015-0.01,0.023c-0.005,0.011-0.009,0.023-0.014,0.034
		c0.003-0.008,0.007-0.015,0.01-0.023C160.646,195.085,160.651,195.073,160.655,195.062z"/>
	<path fill="#2A2F8D" d="M161.38,193.609c-0.003,0.005-0.006,0.009-0.009,0.013c-0.002,0.004-0.005,0.007-0.007,0.011
		c0.004-0.007,0.009-0.013,0.013-0.019C161.378,193.613,161.379,193.611,161.38,193.609z"/>
	<path fill="#2A2F8D" d="M160.037,197.389c0.001-0.008,0.002-0.016,0.003-0.023c-0.002,0.014-0.005,0.028-0.007,0.043
		c-0.001,0.008-0.002,0.016-0.003,0.023C160.032,197.418,160.036,197.404,160.037,197.389z"/>
	<path fill="#2A2F8D" d="M160.033,197.409c0.002-0.019,0.005-0.038,0.007-0.057c-0.005,0.039-0.013,0.077-0.017,0.117
		C160.025,197.448,160.031,197.429,160.033,197.409z"/>
	<path fill="#2A2F8D" d="M171.33,188.326h-0.001c-0.002,0-0.003,0-0.005,0c0.007,0,0.013-0.001,0.02-0.001
		c0.006,0,0.012-0.001,0.018-0.001C171.351,188.325,171.341,188.326,171.33,188.326z"/>
	<path fill="#2A2F8D" d="M169.876,188.422c-0.057,0.007-0.117,0.004-0.173,0.011c-0.007,0.001-0.015,0.001-0.023,0.002
		c-0.07,0.009-0.136,0.031-0.206,0.041h-0.001c0.009-0.001,0.018-0.002,0.027-0.004c0.121-0.018,0.242-0.035,0.365-0.05
		C169.868,188.423,169.872,188.422,169.876,188.422L169.876,188.422z"/>
	<path fill="#2A2F8D" d="M170.477,188.365L170.477,188.365L170.477,188.365L170.477,188.365c0.041-0.003,0.08-0.009,0.121-0.011
		C170.557,188.356,170.518,188.362,170.477,188.365z"/>
	<path fill="#2A2F8D" d="M171.132,188.334c0.056-0.001,0.112-0.006,0.168-0.006h0.001
		C171.245,188.328,171.189,188.333,171.132,188.334z"/>
	<path fill="#2A2F8D" d="M169.864,188.423c0.098-0.012,0.197-0.019,0.296-0.028C170.061,188.404,169.962,188.412,169.864,188.423
		L169.864,188.423z"/>
	<path fill="#2A2F8D" d="M171.3,188.328c0.015,0,0.03-0.002,0.046-0.002c-0.001,0-0.001,0-0.002,0c-0.014,0-0.028,0.001-0.042,0.002
		C171.301,188.328,171.301,188.328,171.3,188.328z"/>
	<path fill="#2A2F8D" d="M165.749,189.679c-0.148,0.076-0.304,0.14-0.449,0.221c-0.001,0-0.001,0.001-0.002,0.001
		c0.375-0.211,0.765-0.402,1.167-0.574c-0.002,0.001-0.004,0.002-0.006,0.003C166.215,189.434,165.984,189.559,165.749,189.679z"/>
	<path fill="#2A2F8D" d="M168.242,188.724c0.411-0.105,0.832-0.188,1.26-0.251c-0.001,0-0.002,0-0.003,0
		c-0.426,0.063-0.844,0.146-1.253,0.25C168.245,188.723,168.244,188.724,168.242,188.724z"/>
	<path fill="#2A2F8D" d="M166.683,189.233c-0.001,0-0.002,0.001-0.003,0.001c0.444-0.18,0.902-0.338,1.374-0.466
		c-0.001,0-0.001,0-0.002,0C167.582,188.897,167.126,189.054,166.683,189.233z"/>
	<polygon fill="#2A2F8D" points="168.075,188.761 168.076,188.76 168.073,188.761 	"/>
	<path fill="#CE1527" d="M187.412,206.656c-2.606-1.882-4.288-4.783-4.288-8.063c0-5.707,5.122-10.256,11.386-10.267h0.02h45.693
		c0.014,0,0.028-0.002,0.042-0.002h23.139c6.275,0,11.409-4.788,11.409-10.5s-5.134-10.5-11.409-10.5h-23.18
		c6.275,0,11.409,4.789,11.409,10.5c0,1.429-0.321,2.799-0.901,4.052c0.579-1.252,0.9-2.622,0.9-4.05
		c0-5.712-5.134-10.5-11.409-10.5H225.49h-23.18c-6.275,0-11.409-4.151-11.409-9.5c0-1.338,0.321-2.6,0.901-3.742
		c-0.579,1.141-0.9,2.403-0.9,3.74c0,5.349,5.134,9.5,11.409,9.5h23.18c-6.275,0-11.409-4.151-11.409-9.5s5.134-9.5,11.409-9.5
		h4.433c6.275,0,11.409-4.788,11.409-10.5s-5.134-10.5-11.409-10.5h-23.18c6.275,0,11.409,4.789,11.409,10.5
		c0,1.429-0.321,2.799-0.901,4.052c0.579-1.252,0.9-2.622,0.9-4.05c0-5.712-5.134-10.5-11.409-10.5H161.05h-23.18
		c-6.275,0-11.409-4.785-11.409-10.5c0-2.857,1.284-5.482,3.352-7.393c-2.067,1.911-3.35,4.535-3.35,7.391
		c0,5.715,5.134,10.5,11.409,10.5h23.18c-6.275,0-11.409-4.785-11.409-10.5c0-5.714,5.134-10.5,11.409-10.5h6.953
		c6.275,0,11.409-4.785,11.409-10.5c0-5.714-5.134-10.5-11.409-10.5h-18.853c-6.275,0-11.409-4.286-11.409-10
		c0-5.699,5.108-9.976,11.362-9.998h0.045h68.313c0.014,0,0.028-0.002,0.042-0.002h23.139c6.275,0,11.409-4.788,11.409-10.5
		s-5.134-10.5-11.409-10.5h-23.18c6.275,0,11.409,4.789,11.409,10.5c0,1.429-0.321,2.8-0.901,4.052c0.579-1.252,0.9-2.622,0.9-4.05
		c0-5.712-5.134-10.5-11.409-10.5H181.3h-23.18c-6.275,0-11.409-4.786-11.409-10.5c0-1.429,0.321-2.8,0.901-4.053
		c-0.579,1.252-0.9,2.622-0.9,4.051c0,5.714,5.134,10.5,11.409,10.5h23.18c-6.275,0-11.409-4.786-11.409-10.5
		s5.134-10.5,11.409-10.5h6.953c6.275,0,11.409-4.785,11.409-10.5c0-4.501-3.191-8.415-7.61-9.879
		c-1.652-0.049-3.308-0.08-4.972-0.08c-5.555,0-11.045,0.278-16.46,0.812c3.488,1.815,5.862,5.265,5.862,9.147
		c0,1.429-0.321,2.8-0.901,4.053c0.579-1.252,0.9-2.622,0.9-4.051c0-3.884-2.375-7.334-5.865-9.149
		C86.683,11.943,21.108,82.73,21.108,168.838c0,82.558,60.282,151.026,139.228,163.817c2.606,1.882,4.288,4.783,4.288,8.063
		c0,5.708-5.123,10.257-11.389,10.267h-0.017h-45.693c-0.014,0-0.027,0.002-0.041,0.002h-23.14c-6.275,0-11.409,4.788-11.409,10.5
		s5.134,10.5,11.409,10.5h23.18c-6.275,0-11.409-4.789-11.409-10.5c0-1.429,0.321-2.799,0.901-4.052
		c-0.579,1.252-0.9,2.622-0.9,4.05c0,5.712,5.134,10.5,11.409,10.5h14.733h23.18c6.275,0,11.409,4.151,11.409,9.5
		c0,1.338-0.321,2.601-0.901,3.742c0.579-1.141,0.9-2.403,0.9-3.74c0-5.349-5.134-9.5-11.409-9.5h-23.18
		c6.275,0,11.409,4.151,11.409,9.5s-5.134,9.5-11.409,9.5h-4.433c-6.275,0-11.409,4.788-11.409,10.5s5.134,10.5,11.409,10.5h23.18
		c-6.275,0-11.409-4.789-11.409-10.5c0-1.429,0.321-2.799,0.901-4.052c-0.579,1.252-0.9,2.622-0.9,4.05
		c0,5.712,5.134,10.5,11.409,10.5h45.693h23.18c6.275,0,11.409,4.785,11.409,10.5c0,2.857-1.284,5.482-3.352,7.393
		c2.067-1.911,3.35-4.535,3.35-7.391c0-5.715-5.134-10.5-11.409-10.5h-23.18c6.275,0,11.409,4.785,11.409,10.5
		c0,5.714-5.134,10.5-11.409,10.5h-6.953c-6.275,0-11.409,4.785-11.409,10.5c0,5.714,5.134,10.5,11.409,10.5h18.853
		c6.275,0,11.409,4.286,11.409,10c0,5.7-5.109,9.977-11.363,9.998h-0.044h-68.313c-0.014,0-0.027,0.002-0.041,0.002h-23.14
		c-6.275,0-11.409,4.788-11.409,10.5s5.134,10.5,11.409,10.5h23.18c-6.275,0-11.409-4.789-11.409-10.5
		c0-1.429,0.321-2.799,0.901-4.052c-0.579,1.252-0.9,2.622-0.9,4.05c0,5.712,5.134,10.5,11.409,10.5h36.163h23.18
		c6.275,0,11.409,4.786,11.409,10.5c0,1.487-0.354,2.908-0.979,4.201c0.624-1.293,0.978-2.713,0.978-4.199
		c0-5.714-5.134-10.5-11.409-10.5h-23.18c6.275,0,11.409,4.786,11.409,10.5s-5.134,10.5-11.409,10.5h-6.953
		c-6.275,0-11.409,4.785-11.409,10.5c0,4.501,3.191,8.415,7.61,9.879c1.652,0.049,3.308,0.08,4.971,0.08
		c5.555,0,11.045-0.278,16.46-0.812c-3.488-1.815-5.862-5.265-5.862-9.147c0-1.487,0.354-2.908,0.979-4.201
		c-0.624,1.293-0.978,2.713-0.978,4.199c0,3.884,2.375,7.334,5.865,9.149c83.935-8.266,149.51-79.053,149.51-165.161
		C326.64,287.915,266.358,219.447,187.412,206.656z M114.561,75.326c0-2.5,0.983-4.727,2.615-6.441
		c-1.631,1.714-2.613,3.94-2.613,6.439c0,5.714,5.134,10,11.409,10h18.853c6.275,0,11.409,4.786,11.409,10.5
		c0,2.858-1.284,5.483-3.352,7.393c2.067-1.91,3.35-4.535,3.35-7.391c0-5.714-5.134-10.5-11.409-10.5H125.97
		C119.695,85.326,114.561,81.04,114.561,75.326z M166.934,189.125c-0.023,0.009-0.045,0.021-0.069,0.03l0,0
		C166.889,189.145,166.911,189.134,166.934,189.125z M161.371,193.623c0.003-0.005,0.006-0.009,0.009-0.013
		c0.146-0.237,0.304-0.468,0.469-0.692c0.002-0.002,0.003-0.004,0.005-0.007c-0.169,0.229-0.329,0.463-0.477,0.704
		c-0.004,0.007-0.009,0.013-0.013,0.019C161.367,193.63,161.369,193.626,161.371,193.623z M160.961,194.374
		c0.003-0.006,0.006-0.011,0.009-0.016c0.065-0.13,0.135-0.257,0.206-0.384c0.014-0.025,0.027-0.052,0.041-0.077
		c0.006-0.01,0.011-0.02,0.016-0.029c-0.015,0.026-0.027,0.052-0.042,0.078c-0.078,0.138-0.154,0.278-0.226,0.42
		c-0.003,0.005-0.006,0.011-0.009,0.016C160.958,194.379,160.959,194.376,160.961,194.374z M160.866,194.551
		c-0.002,0.005-0.005,0.01-0.007,0.015c-0.001,0.003-0.003,0.005-0.004,0.008c-0.002,0.003-0.003,0.007-0.005,0.01
		C160.855,194.572,160.86,194.562,160.866,194.551z M160.534,195.356c0.002-0.005,0.004-0.009,0.005-0.013
		c0.028-0.076,0.061-0.149,0.091-0.224c0.005-0.011,0.009-0.023,0.014-0.034c0.003-0.008,0.007-0.015,0.01-0.023
		c-0.005,0.011-0.009,0.023-0.014,0.034c-0.034,0.085-0.072,0.169-0.104,0.255c-0.002,0.005-0.004,0.009-0.005,0.013
		C160.533,195.362,160.533,195.359,160.534,195.356z M160.215,196.403c0.001-0.005,0.003-0.01,0.004-0.015
		c0.021-0.086,0.05-0.169,0.073-0.254c0.005-0.017,0.01-0.033,0.014-0.049c0.003-0.012,0.008-0.023,0.011-0.034
		c-0.005,0.016-0.01,0.033-0.014,0.049c-0.027,0.1-0.061,0.197-0.085,0.298c-0.001,0.005-0.003,0.01-0.004,0.015
		C160.214,196.409,160.215,196.406,160.215,196.403z M160.202,196.45c-0.001,0.004-0.002,0.008-0.003,0.013
		c-0.006,0.027-0.012,0.054-0.017,0.082C160.188,196.512,160.195,196.481,160.202,196.45z M160.02,197.485
		c0.006-0.054,0.016-0.108,0.024-0.162c-0.001,0.009-0.002,0.019-0.004,0.028c-0.002,0.019-0.005,0.038-0.007,0.057
		c0.002-0.014,0.005-0.028,0.007-0.043c0.007-0.055,0.02-0.109,0.028-0.164c0.005-0.033,0.012-0.066,0.017-0.099
		c0.003-0.02,0.008-0.04,0.011-0.06c-0.005,0.033-0.012,0.065-0.017,0.098c-0.013,0.083-0.031,0.165-0.042,0.249
		c-0.002,0.014-0.005,0.028-0.007,0.043c0.001-0.008,0.002-0.016,0.003-0.023c-0.003,0.02-0.008,0.039-0.01,0.06
		C160.022,197.474,160.021,197.479,160.02,197.485c0,0.003,0,0.006-0.001,0.009c-0.003,0.029-0.005,0.059-0.008,0.088
		c-0.001,0.005-0.001,0.01-0.002,0.015C160.013,197.56,160.016,197.522,160.02,197.485z M162.02,204.517
		c-0.912-1.18-1.562-2.543-1.865-4.02c-0.127-0.618-0.201-1.252-0.201-1.905c0-0.004,0-0.007,0-0.01
		c0-0.014,0.002-0.027,0.002-0.041c0-0.081,0.011-0.159,0.013-0.24c0.002-0.061,0.008-0.121,0.011-0.182
		c-0.006,0.114-0.018,0.226-0.019,0.341c-0.001,0.041-0.007,0.08-0.007,0.121c0,0.004,0,0.007,0,0.01
		c0,0.652,0.074,1.287,0.201,1.905c0.317,1.477,0.991,2.84,1.931,4.021C162.064,204.518,162.042,204.517,162.02,204.517z
		 M162.023,192.694c0.002-0.003,0.005-0.006,0.007-0.009c0.142-0.181,0.288-0.358,0.442-0.53c0.002-0.002,0.004-0.005,0.007-0.007
		C162.319,192.325,162.168,192.507,162.023,192.694z M162.628,191.981c0.001-0.001,0.001-0.002,0.002-0.002
		c0.437-0.466,0.917-0.897,1.438-1.286c0.001-0.001,0.002-0.001,0.002-0.002C163.548,191.082,163.065,191.514,162.628,191.981z
		 M164.183,190.609C164.183,190.609,164.184,190.609,164.183,190.609c0.256-0.186,0.518-0.364,0.791-0.529
		c0.001,0,0.001-0.001,0.002-0.001C164.703,190.245,164.439,190.423,164.183,190.609z M165.8,189.628
		c-0.097,0.053-0.193,0.105-0.29,0.158c-0.067,0.036-0.135,0.072-0.202,0.11c-0.028,0.016-0.057,0.028-0.086,0.042
		C165.411,189.83,165.604,189.726,165.8,189.628z M165.299,189.901c0,0,0.001-0.001,0.002-0.001c0.144-0.081,0.3-0.146,0.449-0.221
		c0.235-0.12,0.466-0.245,0.711-0.35c0.002-0.001,0.004-0.002,0.006-0.003C166.064,189.499,165.674,189.69,165.299,189.901z
		 M166.68,189.234c0.001,0,0.002-0.001,0.003-0.001c0.443-0.179,0.899-0.336,1.369-0.465c0.001,0,0.001,0,0.002,0
		C167.582,188.897,167.124,189.054,166.68,189.234z M168.075,188.761c-0.001,0-0.001,0-0.002,0
		C168.074,188.761,168.075,188.761,168.075,188.761C168.075,188.76,168.075,188.761,168.075,188.761z M169.864,188.423
		L169.864,188.423c-0.122,0.014-0.242,0.032-0.364,0.05c0.001,0,0.002,0,0.003,0c-0.428,0.064-0.849,0.147-1.26,0.251
		c0.001,0,0.003-0.001,0.004-0.001c0.409-0.104,0.827-0.187,1.253-0.25c-0.009,0.001-0.018,0.002-0.027,0.004h0.001
		c-0.088,0.013-0.177,0.021-0.264,0.036c0.156-0.027,0.312-0.056,0.47-0.077c0.007-0.001,0.015-0.001,0.023-0.002
		c0.109-0.014,0.221-0.022,0.332-0.033c-0.053,0.006-0.105,0.015-0.158,0.022c0,0,0,0,0.001,0
		C169.872,188.422,169.868,188.423,169.864,188.423c0.099-0.012,0.198-0.019,0.296-0.028
		C170.061,188.405,169.961,188.412,169.864,188.423z M170.477,188.365L170.477,188.365L170.477,188.365h-0.001
		c-0.053,0.004-0.107,0.003-0.16,0.007C170.37,188.368,170.424,188.369,170.477,188.365c0.04-0.003,0.08-0.009,0.12-0.011
		C170.557,188.356,170.518,188.362,170.477,188.365L170.477,188.365z M171.346,188.326c-0.015,0-0.03,0.002-0.046,0.002
		c-0.04,0.001-0.079,0.005-0.118,0.005c-0.22,0.003-0.438,0.015-0.656,0.03c0.256-0.018,0.513-0.034,0.774-0.035
		c-0.057,0-0.112,0.005-0.168,0.006c0.057-0.001,0.112-0.006,0.169-0.006c0.004,0,0.008-0.001,0.013-0.001s0.01-0.001,0.015-0.001
		c0.011,0,0.021-0.001,0.032-0.001c-0.006,0-0.012,0.001-0.018,0.001C171.345,188.326,171.346,188.326,171.346,188.326z
		 M172.622,329.928c0.002-0.001,0.004-0.002,0.006-0.003c0.061,0.018,0.119,0.041,0.18,0.058
		C172.745,329.966,172.685,329.946,172.622,329.928z M176.434,350.984c-0.002,0-0.003,0-0.005,0c-0.009,0-0.018,0.001-0.028,0.001
		c0.007,0,0.013-0.001,0.02-0.001c0.002,0,0.004,0,0.007,0c-0.004,0-0.007,0-0.011,0c-0.011,0-0.021,0.001-0.032,0.001
		c0.005,0,0.01-0.001,0.016-0.001c-0.001,0-0.001,0-0.002,0c0.01,0,0.02-0.001,0.03-0.001
		C176.432,350.984,176.433,350.984,176.434,350.984C176.435,350.984,176.435,350.984,176.434,350.984h0.001l0,0
		C176.435,350.984,176.435,350.984,176.434,350.984C176.435,350.984,176.435,350.984,176.434,350.984z M178.676,350.78
		c0.021-0.004,0.041-0.01,0.062-0.014h0.001C178.718,350.769,178.697,350.776,178.676,350.78z M180.813,350.186
		c0.023-0.009,0.044-0.02,0.067-0.029c0,0,0.001,0,0.001-0.001C180.858,350.166,180.837,350.178,180.813,350.186z M181.285,349.983
		c-0.001,0-0.002,0.001-0.003,0.001c-0.009,0.004-0.018,0.008-0.026,0.011c-0.065,0.029-0.13,0.058-0.196,0.085
		c0.002-0.001,0.005-0.002,0.007-0.003c-0.45,0.182-0.913,0.343-1.392,0.472c0.005-0.001,0.011-0.002,0.016-0.004h-0.001
		c-0.054,0.015-0.11,0.024-0.164,0.038c-0.001,0-0.002,0-0.003,0c0.013-0.003,0.027-0.006,0.041-0.009
		c-0.428,0.112-0.868,0.196-1.315,0.262c0.009-0.001,0.018-0.002,0.027-0.004l0,0c0.089-0.013,0.179-0.021,0.267-0.036
		c-0.158,0.027-0.315,0.057-0.475,0.078c-0.007,0.001-0.013,0.001-0.02,0.002c-0.111,0.014-0.224,0.022-0.336,0.033
		c-0.056,0.006-0.109,0.017-0.165,0.022c0.055-0.005,0.108-0.017,0.164-0.022h0.001c0.054-0.006,0.106-0.016,0.16-0.022
		c0.004,0,0.008-0.001,0.012-0.002c-0.202,0.024-0.407,0.042-0.612,0.058l0,0h-0.001l0,0l0,0l0,0
		c-0.276,0.02-0.552,0.037-0.833,0.038l0,0h-0.001c0.038,0,0.076-0.004,0.114-0.005c0.129-0.005,0.258-0.012,0.387-0.018
		c0.089-0.004,0.178-0.008,0.267-0.012c0.022-0.002,0.045-0.001,0.067-0.003l0,0l0,0c0.206-0.016,0.41-0.034,0.613-0.059
		c0.069-0.008,0.136-0.019,0.205-0.028c-0.068,0.009-0.136,0.02-0.204,0.028h-0.001c0.123-0.015,0.243-0.032,0.365-0.05
		c-0.001,0-0.002,0-0.003,0c0.449-0.067,0.892-0.151,1.322-0.264c0.035-0.009,0.071-0.015,0.105-0.024
		c0.48-0.13,0.944-0.291,1.396-0.474c0,0,0,0,0.001,0l0,0l0,0c-0.001,0-0.001,0.001-0.002,0.001
		c0.064-0.026,0.126-0.054,0.189-0.081c0.008-0.004,0.017-0.007,0.025-0.011h-0.001c0.403-0.172,0.794-0.364,1.169-0.575h0.001
		c0,0,0,0-0.001,0l0,0c0,0,0,0-0.001,0c0,0,0,0-0.001,0c-0.144,0.081-0.3,0.145-0.448,0.221
		C181.763,349.752,181.531,349.878,181.285,349.983c0.004-0.002,0.007-0.003,0.011-0.005l0,0
		C181.292,349.98,181.288,349.982,181.285,349.983z M181.956,349.678c0.163-0.085,0.324-0.173,0.483-0.263c0,0,0,0-0.001,0
		c0,0,0,0,0.001,0c0.028-0.016,0.058-0.028,0.087-0.043C182.34,349.48,182.15,349.581,181.956,349.678z M182.742,349.251
		c-0.087,0.053-0.181,0.097-0.27,0.147C182.561,349.349,182.655,349.304,182.742,349.251L182.742,349.251z M183.564,348.703
		c-0.255,0.185-0.517,0.363-0.789,0.528c-0.002,0.001-0.003,0.002-0.005,0.003c0.274-0.167,0.539-0.345,0.796-0.532
		C183.565,348.702,183.564,348.702,183.564,348.703z M185.118,347.332c-0.436,0.466-0.917,0.896-1.438,1.285
		c-0.001,0.001-0.002,0.001-0.003,0.002c0.523-0.39,1.006-0.823,1.444-1.291C185.12,347.33,185.119,347.331,185.118,347.332z
		 M185.719,346.626c-0.141,0.181-0.288,0.358-0.442,0.529c-0.002,0.003-0.005,0.005-0.007,0.008c0.159-0.177,0.31-0.359,0.456-0.546
		C185.723,346.62,185.721,346.623,185.719,346.626z M186.374,345.692c-0.002,0.003-0.005,0.007-0.007,0.01
		c-0.146,0.237-0.303,0.467-0.469,0.691c-0.002,0.002-0.004,0.004-0.005,0.007c0.169-0.229,0.329-0.463,0.477-0.704
		c0.004-0.007,0.009-0.013,0.013-0.019C186.381,345.682,186.377,345.687,186.374,345.692z M186.787,344.938
		c-0.003,0.006-0.006,0.011-0.009,0.017c-0.065,0.128-0.134,0.255-0.204,0.38c-0.014,0.026-0.027,0.052-0.042,0.078
		c-0.006,0.011-0.012,0.022-0.018,0.033c0.015-0.026,0.028-0.053,0.043-0.08c0.078-0.138,0.154-0.277,0.225-0.419
		c0.003-0.006,0.006-0.011,0.009-0.017C186.79,344.932,186.789,344.935,186.787,344.938z M187.214,343.955
		c-0.002,0.005-0.004,0.009-0.006,0.014c-0.028,0.075-0.061,0.148-0.091,0.223c-0.005,0.012-0.01,0.023-0.014,0.035
		c-0.003,0.008-0.007,0.016-0.011,0.024c0.005-0.012,0.01-0.023,0.014-0.035c0.034-0.086,0.073-0.17,0.105-0.257
		c0.002-0.005,0.004-0.009,0.006-0.014C187.216,343.948,187.215,343.952,187.214,343.955z M187.533,342.908
		c-0.001,0.005-0.003,0.01-0.004,0.015c-0.021,0.086-0.049,0.168-0.073,0.253c-0.005,0.017-0.01,0.033-0.014,0.05
		c-0.003,0.012-0.008,0.024-0.011,0.036c0.005-0.017,0.01-0.033,0.014-0.05c0.028-0.1,0.061-0.198,0.086-0.299
		c0.001-0.005,0.003-0.01,0.004-0.015C187.534,342.902,187.533,342.905,187.533,342.908z M187.728,341.826
		c-0.006,0.055-0.016,0.108-0.024,0.162c0.001-0.009,0.002-0.019,0.004-0.028c0.002-0.019,0.005-0.038,0.007-0.057
		c-0.002,0.015-0.005,0.029-0.007,0.043c-0.007,0.055-0.02,0.109-0.028,0.164c-0.005,0.034-0.012,0.067-0.017,0.1
		c-0.003,0.02-0.008,0.04-0.011,0.06c0.006-0.033,0.012-0.066,0.017-0.099c0.013-0.083,0.031-0.165,0.042-0.249
		c0.002-0.015,0.005-0.028,0.007-0.043c-0.001,0.008-0.002,0.016-0.003,0.024c0.003-0.02,0.008-0.039,0.01-0.06
		C187.726,341.837,187.727,341.832,187.728,341.826c0-0.003,0-0.006,0.001-0.009c0.003-0.029,0.005-0.059,0.008-0.088
		c0.001-0.005,0.001-0.01,0.002-0.015C187.735,341.751,187.732,341.789,187.728,341.826z M187.794,340.729
		c0,0.014-0.002,0.027-0.002,0.041c0,0.081-0.011,0.159-0.013,0.24c-0.002,0.061-0.008,0.121-0.011,0.182
		c0.006-0.114,0.018-0.227,0.019-0.342C187.788,340.809,187.794,340.77,187.794,340.729c0-0.004,0-0.007,0-0.01
		c0-0.652-0.074-1.287-0.201-1.905c-0.317-1.477-0.991-2.84-1.931-4.021c0.022,0,0.045,0.001,0.067,0.001
		c0.912,1.18,1.562,2.543,1.865,4.02c0.127,0.618,0.201,1.252,0.201,1.905C187.794,340.723,187.794,340.726,187.794,340.729z
		 M230.572,470.427c1.631-1.714,2.613-3.94,2.613-6.44c0-5.714-5.134-10-11.409-10h-18.853c-6.275,0-11.409-4.786-11.409-10.5
		c0-2.858,1.284-5.483,3.352-7.393c-2.067,1.91-3.35,4.535-3.35,7.391c0,5.714,5.134,10.5,11.409,10.5h18.853
		c6.275,0,11.409,4.286,11.409,10C233.187,466.486,232.204,468.713,230.572,470.427z"/>
	<path fill="#CE1527" d="M171.329,188.327c-0.004,0-0.008,0.001-0.012,0.001c-0.001,0-0.001,0-0.002,0c-0.004,0-0.008,0-0.013,0.001
		c0.014,0,0.028-0.002,0.042-0.002c-0.007,0-0.013,0.001-0.02,0.001C171.326,188.327,171.327,188.327,171.329,188.327z"/>
	<polygon fill="#CE1527" points="171.3,188.328 171.301,188.328 171.301,188.328 	"/>
	<path fill="#2A2F8D" d="M187.43,343.263c0.003-0.012,0.008-0.024,0.011-0.036c0.005-0.017,0.01-0.033,0.014-0.05
		c-0.003,0.012-0.008,0.024-0.011,0.036C187.44,343.229,187.435,343.246,187.43,343.263z"/>
	<polygon fill="#2A2F8D" points="187.208,343.968 187.214,343.955 187.217,343.945 187.211,343.959 	"/>
	<path fill="#2A2F8D" d="M186.514,345.445c0.006-0.011,0.012-0.022,0.018-0.033c0.015-0.026,0.028-0.052,0.042-0.078
		c-0.006,0.01-0.012,0.021-0.017,0.031C186.542,345.391,186.529,345.419,186.514,345.445z"/>
	<path fill="#2A2F8D" d="M187.786,340.85c-0.001,0.115-0.014,0.227-0.019,0.342c0.003-0.061,0.009-0.121,0.011-0.182
		c0.002-0.081,0.013-0.159,0.013-0.24c0-0.01,0.001-0.02,0.001-0.03C187.793,340.777,187.787,340.813,187.786,340.85z"/>
	<path fill="#2A2F8D" d="M186.367,345.702c0.002-0.003,0.005-0.007,0.007-0.01c0.003-0.005,0.006-0.01,0.01-0.015
		c-0.004,0.007-0.009,0.013-0.013,0.019C186.37,345.698,186.369,345.7,186.367,345.702z"/>
	<path fill="#2A2F8D" d="M187.711,341.922c-0.001,0.008-0.002,0.016-0.003,0.024c0.002-0.014,0.005-0.028,0.007-0.043
		c0.001-0.008,0.002-0.016,0.003-0.024C187.716,341.893,187.713,341.907,187.711,341.922z"/>
	<path fill="#2A2F8D" d="M186.778,344.954c0.003-0.006,0.006-0.011,0.009-0.017c0.001-0.003,0.002-0.005,0.004-0.008
		c-0.003,0.006-0.006,0.011-0.009,0.017C186.781,344.949,186.78,344.952,186.778,344.954z"/>
	<path fill="#2A2F8D" d="M187.715,341.902c-0.002,0.019-0.005,0.038-0.007,0.057c0.005-0.039,0.013-0.077,0.017-0.117
		C187.723,341.863,187.717,341.882,187.715,341.902z"/>
	<path fill="#2A2F8D" d="M187.092,344.25c0.003-0.008,0.007-0.016,0.011-0.024c0.005-0.012,0.01-0.023,0.014-0.035
		c-0.003,0.008-0.007,0.016-0.011,0.024C187.102,344.227,187.097,344.239,187.092,344.25z"/>
	<path fill="#2A2F8D" d="M187.652,342.27c0.003-0.02,0.008-0.04,0.011-0.06c0.005-0.033,0.012-0.066,0.017-0.1
		c-0.003,0.021-0.008,0.041-0.011,0.061C187.663,342.204,187.657,342.236,187.652,342.27z"/>
	<path fill="#2A2F8D" d="M187.528,342.923c0.001-0.005,0.003-0.01,0.004-0.015c0.001-0.003,0.001-0.006,0.002-0.01
		c-0.001,0.005-0.003,0.01-0.004,0.015C187.529,342.917,187.529,342.92,187.528,342.923z"/>
	<path fill="#2A2F8D" d="M181.059,350.081c0.066-0.027,0.131-0.056,0.196-0.085c-0.063,0.027-0.125,0.055-0.189,0.081
		C181.064,350.078,181.062,350.08,181.059,350.081z"/>
	<path fill="#2A2F8D" d="M182.447,349.411L182.447,349.411c0.001-0.001,0.001-0.001,0.001-0.001
		c-0.375,0.212-0.766,0.403-1.169,0.575h0.001c-0.008,0.004-0.017,0.007-0.025,0.011c0.009-0.004,0.018-0.008,0.026-0.011
		c0.001,0,0.002-0.001,0.003-0.001c0.246-0.105,0.478-0.231,0.714-0.351C182.147,349.557,182.303,349.493,182.447,349.411z"/>
	<polygon fill="#2A2F8D" points="181.285,349.983 181.296,349.979 181.295,349.979 	"/>
	<path fill="#2A2F8D" d="M176.418,350.984c0.001,0,0.003,0,0.004,0c-0.007,0-0.013,0.001-0.02,0.001
		c-0.005,0-0.01,0.001-0.016,0.001C176.397,350.986,176.407,350.984,176.418,350.984z"/>
	<polygon fill="#2A2F8D" points="181.069,350.076 181.068,350.077 181.068,350.077 	"/>
	<path fill="#2A2F8D" d="M179.673,350.55c-0.034,0.009-0.07,0.015-0.105,0.024c-0.43,0.112-0.873,0.197-1.322,0.264
		c0.001,0,0.002,0,0.003,0c0.447-0.066,0.887-0.151,1.315-0.262c-0.013,0.003-0.027,0.006-0.041,0.009c0.001,0,0.002,0,0.003,0
		c0.054-0.014,0.11-0.023,0.164-0.038h0.001c-0.005,0.001-0.011,0.002-0.016,0.004c0.478-0.13,0.942-0.29,1.392-0.472
		c0.001,0,0.001-0.001,0.002-0.001C180.617,350.26,180.152,350.42,179.673,350.55z"/>
	<path fill="#2A2F8D" d="M177.872,350.889c0.058-0.007,0.118-0.004,0.176-0.012c0.007-0.001,0.013-0.001,0.02-0.002
		c0.071-0.009,0.137-0.031,0.208-0.042l0,0c-0.009,0.001-0.018,0.002-0.027,0.004c-0.121,0.018-0.242,0.035-0.365,0.05
		C177.88,350.888,177.876,350.889,177.872,350.889z"/>
	<polygon fill="#2A2F8D" points="182.449,349.41 182.448,349.411 182.448,349.411 	"/>
	<path fill="#2A2F8D" d="M176.402,350.985c0.009,0,0.019-0.001,0.028-0.001c-0.01,0-0.02,0.001-0.03,0.001
		C176.401,350.985,176.401,350.985,176.402,350.985z"/>
	<path fill="#2A2F8D" d="M177.884,350.888c-0.203,0.024-0.408,0.042-0.613,0.059h0.001l0,0
		C177.477,350.93,177.681,350.912,177.884,350.888L177.884,350.888L177.884,350.888z"/>
	<path fill="#2A2F8D" d="M176.549,350.979c-0.038,0.001-0.075,0.005-0.114,0.005h0.001l0,0c0.281-0.001,0.557-0.018,0.833-0.038l0,0
		c-0.022,0.002-0.045,0.001-0.067,0.003C176.987,350.965,176.769,350.975,176.549,350.979z"/>
	<polyline fill="none" points="177.271,350.946 177.271,350.946 177.271,350.946 	"/>
	<polygon fill="#2A2F8D" points="176.435,350.984 176.43,350.984 176.434,350.984 176.435,350.984 	"/>
	<path fill="#212062" d="M172.622,329.928c0.062,0.018,0.123,0.038,0.186,0.055c-0.061-0.017-0.119-0.04-0.18-0.058
		C172.626,329.926,172.624,329.927,172.622,329.928z"/>
</g>
<g id="Warstwa_2">
</g>
</svg>
