<?xml version="1.0" encoding="utf-8"?>
<!-- Generator: Adobe Illustrator 17.0.0, SVG Export Plug-In . SVG Version: 6.00 Build 0)  -->
<!DOCTYPE svg PUBLIC "-//W3C//DTD SVG 1.1//EN" "http://www.w3.org/Graphics/SVG/1.1/DTD/svg11.dtd">
<svg version="1.1" id="Warstwa_1" xmlns="http://www.w3.org/2000/svg" xmlns:xlink="http://www.w3.org/1999/xlink" x="0px" y="0px"
	 width="341.333px" height="339.333px" viewBox="0 0 341.333 339.333" enable-background="new 0 0 341.333 339.333"
	 xml:space="preserve">
<g id="Warstwa_1_1_" display="none">
	<circle display="inline" fill="#FFB300" cx="241.851" cy="143.455" r="168.581"/>
</g>
<g id="Warstwa_2" display="none">
	<g display="inline">
		<path fill="#C1272D" d="M590.777-3.667c-6.275,0-11.409,4.786-11.409,10.5s5.134,10.5,11.409,10.5h45.055
			c6.275,0,11.409,4.286,11.409,10s-5.134,10-11.409,10H532.431c-6.275,0-11.409,4.786-11.409,10.5s5.134,10.5,11.409,10.5h66.489
			c6.275,0,11.409,4.786,11.409,10.5s-5.134,10.5-11.409,10.5h-12.905c-6.275,0-11.409,4.786-11.409,10.5s5.134,10.5,11.409,10.5
			h65.298c6.275,0,11.409,4.286,11.409,10s-5.134,10-11.409,10h-52.2c-6.275,0-11.409,4.786-11.409,10.5s5.134,10.5,11.409,10.5
			h3.379c6.275,0,11.409,4.786,11.409,10.5s-5.134,10.5-11.409,10.5h-36.72c-6.275,0-11.409,4.786-11.409,10.5
			s5.134,10.5,11.409,10.5h56.963c6.275,0,11.409,4.786,11.409,10.5s-5.134,10.5-11.409,10.5h-97.448
			c-6.275,0-11.409,4.286-11.409,10s5.134,10,11.409,10h54.581c6.275,0,11.409,4.841,11.409,10.555s-5.09,10.472-11.312,10.472
			s-11.312,4.773-11.312,10.487s5.134,10.487,11.409,10.487h68.87c6.275,0,11.409,4.786,11.409,10.5s-5.134,10.5-11.409,10.5H611.02
			c-6.275,0-11.409,4.286-11.409,10s-5.134,10-11.409,10H283.565c-6.275,0-11.409-4.286-11.409-10s-5.134-10-11.409-10h-4.57
			c-6.275,0-11.409-4.786-11.409-10.5s5.134-10.5,11.409-10.5h68.87c6.275,0,11.409-4.786,11.409-10.5s-5.134-10.5-11.409-10.5
			h-6.951c-6.275,0-11.409-4.786-11.409-10.5s5.134-10.5,11.409-10.5h18.859c6.275,0,11.409-4.286,11.409-10s-5.134-10-11.409-10
			h-91.494c-6.275,0-11.409-4.786-11.409-10.5s5.134-10.5,11.409-10.5h59.344c6.275,0,11.409-4.786,11.409-10.5
			s-5.134-10.5-11.409-10.5h-6.951c-6.275,0-11.409-4.786-11.409-10.5s5.134-10.5,11.409-10.5h42.674
			c6.275,0,11.409-4.786,11.409-10.5c0-5.714-5.134-10.5-11.409-10.5H237.126c-6.275,0-11.409-4.286-11.409-10s5.134-10,11.409-10
			h65.298c6.275,0,11.409-4.786,11.409-10.5s-5.134-10.5-11.409-10.5h-24.812c-6.275,0-11.409-4.786-11.409-10.5
			s5.134-10.5,11.409-10.5h51.009c6.275,0,11.409-4.786,11.409-10.5s-5.134-10.5-11.409-10.5h-76.015
			c-6.275,0-11.409-4.286-11.409-10s5.134-10,11.409-10h30.766c6.275,0,11.409-4.786,11.409-10.5s-5.134-10.5-11.409-10.5h-56.963
			c-6.275,0-11.409-4.786-11.409-10.5s5.134-10.5,11.409-10.5H663.22c6.275,0,11.409,4.786,11.409,10.5s-5.134,10.5-11.409,10.5
			h-72.443V-3.667z"/>
	</g>
</g>
<g id="Warstwa_4" display="none">
	<g display="inline">
		
			<image overflow="visible" enable-background="new    " width="405" height="405" xlink:href="EEF7380C.png"  transform="matrix(1 0 0 1 -30 -33.6667)">
		</image>
	</g>
	
		<text transform="matrix(1 0 0 1 181 145.3333)" display="inline" fill="#F5422E" font-family="'MyriadPro-Regular'" font-size="12">f5422e</text>
</g>
<g id="Warstwa_4_kopia_3">
	<circle fill="#FFFFFA" cx="172.126" cy="168.847" r="165.973"/>
	<text transform="matrix(1 0 0 1 181 145.3333)" fill="#F5422E" font-family="'MyriadPro-Regular'" font-size="12">f5422e</text>
</g>
<g id="Warstwa_4_kopia_2" display="none">
	<circle display="inline" fill="#F82530" cx="172.126" cy="168.847" r="165.973"/>
	
		<text transform="matrix(1 0 0 1 181 145.3333)" display="inline" fill="#F5422E" font-family="'MyriadPro-Regular'" font-size="12">f5422e</text>
</g>
<g id="Warstwa_4_kopia">
	<g>
		<g>
			<defs>
				<circle id="SVGID_1_" cx="172.126" cy="168.847" r="165.973"/>
			</defs>
			<clipPath id="SVGID_2_">
				<use xlink:href="#SVGID_1_"  overflow="visible"/>
			</clipPath>
			<g clip-path="url(#SVGID_2_)">
				<path fill="#F7F7F3" d="M223.612,88.833c0-5.335-4.518-9.5-10.039-9.5h-11.354c-5.522,0-10.039-4.165-10.039-9.5
					s4.518-9.5,10.039-9.5H173.62c-5.522,0-10.039,4.165-10.039,9.5s4.518,9.5,10.039,9.5h11.354c5.522,0,10.039,4.165,10.039,9.5
					s-4.518,9.5-10.039,9.5h28.599C219.095,98.333,223.612,94.168,223.612,88.833z"/>
				<path fill="#F7F7F3" d="M171.228,184.833c0-5.333,4.518-9.5,10.039-9.5h-28.599c-5.522,0-10.039,4.167-10.039,9.5
					s4.518,9.5,10.039,9.5h28.599C175.746,194.333,171.228,190.166,171.228,184.833z"/>
				<path fill="#D72233" d="M196.492,494.833c0-5.335,4.518-10.5,10.039-10.5h21.834c5.522,0,10.039-3.665,10.039-9
					s-4.518-9-10.039-9h-28.599c5.522,0,10.039,3.665,10.039,9s-4.518,9-10.039,9h-21.834c-5.522,0-10.039,5.165-10.039,10.5
					s4.518,10.5,10.039,10.5h28.599C201.01,505.333,196.492,500.169,196.492,494.833z"/>
				<path fill="#D72233" d="M214.302,417.833c0-5.335,4.518-9.5,10.039-9.5h6.118c5.522,0,10.039-4.665,10.039-10
					s-4.518-10-10.039-10H201.86c5.522,0,10.039,4.665,10.039,10s-4.518,10-10.039,10h-6.118c-5.522,0-10.039,4.165-10.039,9.5
					s4.518,9.5,10.039,9.5h28.599C218.82,427.333,214.302,423.169,214.302,417.833z"/>
				<path fill="#D72233" d="M160.871,456.333c0-5.333,4.518-10,10.039-10h-28.599c-5.522,0-10.039,4.667-10.039,10
					s4.518,10,10.039,10h28.599C165.389,466.333,160.871,461.666,160.871,456.333z"/>
				<path fill="#F7F7F3" d="M268.79,359.333c0-5.335-4.518-10-10.039-10h-16.589c-5.522,0-10.039-4.165-10.039-9.5
					s4.518-9.5,10.039-9.5h6.118c5.522,0,10.039-4.165,10.039-9.5s-4.518-9.5-10.039-9.5h-28.6c5.522,0,10.039,4.165,10.039,9.5
					s-4.518,9.5-10.039,9.5h-6.118c-5.522,0-10.039,4.165-10.039,9.5s4.518,9.5,10.039,9.5h16.589c5.522,0,10.039,4.665,10.039,10
					s-4.518,10-10.039,10h28.599C264.272,369.333,268.79,364.668,268.79,359.333z"/>
				<path fill="#F7F7F3" d="M277.052,203.833c0-5.335-4.518-9.5-10.039-9.5h-28.599c5.522,0,10.039,4.165,10.039,9.5
					s-4.518,9.5-10.039,9.5h28.599C272.535,213.333,277.052,209.169,277.052,203.833z"/>
				<path fill="#D72233" d="M168.201,378.833c0-5.333,4.518-9.5,10.039-9.5h-28.599c-5.522,0-10.039,4.167-10.039,9.5
					s4.518,9.5,10.039,9.5h28.599C172.719,388.333,168.201,384.166,168.201,378.833z"/>
				<path fill="#F7F7F3" d="M146.079,107.333c0-5.333,4.518-9,10.039-9H127.52c-5.522,0-10.039,3.667-10.039,9s4.518,9,10.039,9
					h28.599C150.597,116.333,146.079,112.666,146.079,107.333z"/>
				<path fill="#F7F7F3" d="M241.432,165.833c0-5.335-4.518-9.5-10.039-9.5h-32.314c-5.522,0-10.039-4.165-10.039-9.5
					s4.518-9.5,10.039-9.5h2.977c5.522,0,10.039-5.165,10.039-10.5s-4.518-10.5-10.039-10.5h-28.599
					c5.522,0,10.039,5.165,10.039,10.5c0,5.335-4.518,10.5-10.039,10.5h-2.977c-5.522,0-10.039,4.165-10.039,9.5
					s4.518,9.5,10.039,9.5h32.314c5.522,0,10.039,4.165,10.039,9.5s-4.518,9.5-10.039,9.5h28.599
					C236.914,175.333,241.432,171.168,241.432,165.833z"/>
				<rect x="424.479" y="349.333" fill="#D72233" width="19.433" height="0.001"/>
				<path fill="#D72233" d="M271.94,436.833c0-5.335-4.518-9.5-10.039-9.5h-28.599c5.522,0,10.039,4.165,10.039,9.5
					s-4.518,9.5-10.039,9.5h28.599C267.422,446.333,271.94,442.169,271.94,436.833z"/>
				<path fill="#F7F7F3" d="M177.634,300.833c0-5.333,4.518-10.5,10.039-10.5h3.9c5.522,0,10.039-4.006,10.039-9s-4.518-9-10.039-9
					h-28.599c5.522,0,10.039,4.006,10.039,9s-4.518,9-10.039,9h-3.9c-5.522,0-10.039,5.167-10.039,10.5s4.518,10.5,10.039,10.5
					h28.599C182.152,311.333,177.634,306.166,177.634,300.833z"/>
				<path fill="#F7F7F3" d="M270.769,50.333c0-5.335-4.518-10-10.039-10h-28.599c5.522,0,10.039,4.665,10.039,10
					s-4.518,10-10.039,10h28.599C266.252,60.333,270.769,55.669,270.769,50.333z"/>
				<path fill="#F7F7F3" d="M159.701,30.333c0-5.333,4.518-10,10.039-10h-28.599c-5.522,0-10.039,4.667-10.039,10
					s4.518,10,10.039,10h28.599C164.218,40.333,159.701,35.666,159.701,30.333z"/>
				<path fill="#D72233" d="M135.599-8.667c0-5.335,4.518-10,10.039-10h-28.599c-5.522,0-10.039,4.665-10.039,10s4.518,10,10.039,10
					h28.599C140.116,1.333,135.599-3.331,135.599-8.667z"/>
				<path fill="#F7F7F3" d="M219.424,10.833c0-5.335-4.518-9.5-10.039-9.5h-28.599c5.522,0,10.039,4.165,10.039,9.5
					s-4.518,9.5-10.039,9.5h28.599C214.906,20.333,219.424,16.169,219.424,10.833z"/>
				<path fill="#D72233" d="M221.641,552.333c0-5.335-4.518-10-10.039-10h-27.07c-5.522,0-10.039-4.167-10.039-9.5
					s4.518-9.5,10.039-9.5h-28.599c-5.522,0-10.039,4.167-10.039,9.5s4.518,9.5,10.039,9.5h27.07c5.522,0,10.039,4.665,10.039,10
					s-4.518,10-10.039,10h28.599C217.124,562.333,221.641,557.669,221.641,552.333z"/>
				<path fill="#D72233" d="M261.46,514.333c0-5.335-4.518-9-10.039-9h-28.599c5.522,0,10.039,3.665,10.039,9
					c0,5.335-4.518,9-10.039,9h28.599C256.942,523.333,261.46,519.669,261.46,514.333z"/>
				<path fill="#D72233" d="M151.438,571.833c0-5.335,4.518-9.5,10.039-9.5h-28.599c-5.522,0-10.039,4.165-10.039,9.5
					s4.518,9.5,10.039,9.5h28.599C155.956,581.333,151.438,577.168,151.438,571.833z"/>
				<path fill="#F7F7F3" d="M148.173,262.333c0-5.333,4.518-10,10.039-10h-28.599c-5.522,0-10.039,4.667-10.039,10
					s4.518,10,10.039,10h28.599C152.691,272.333,148.173,267.666,148.173,262.333z"/>
				<path fill="#F7F7F3" d="M228.857,243.005c0-5.335-4.481-9.515-9.957-9.515s-9.957-4.743-9.957-10.078
					s4.518-10.078,10.039-10.078h-28.599c-5.522,0-10.039,4.849-10.039,10.184s4.481,10.026,9.957,10.026s9.957,4.047,9.957,9.382
					s-4.518,9.408-10.039,9.408h28.599C224.339,252.333,228.857,248.34,228.857,243.005z"/>
				<path fill="#D8D8D6" d="M536.262,562.333h-28.599h-35.148c-5.522,0-10.039-4.665-10.039-10s4.518-10,10.039-10h11.046h28.599
					c5.522,0,10.039-4.167,10.039-9.5s-4.518-9.5-10.039-9.5h-28.599h-62.392c-5.522,0-10.039-3.665-10.039-9
					c0-5.335,4.518-9,10.039-9h29.912h28.599c5.522,0,10.039-5.165,10.039-10.5s-4.518-10.5-10.039-10.5h-11.354
					c-5.522,0-10.039-3.665-10.039-9s4.518-9,10.039-9h28.856h28.599c5.522,0,10.039-4.667,10.039-10s-4.518-10-10.039-10h-28.599
					h-17.337c-5.522,0-10.039-4.165-10.039-9.5s4.518-9.5,10.039-9.5h2.977c5.522,0,10.039-4.165,10.039-9.5s-4.518-9.5-10.039-9.5
					h-28.599h-3.716c-5.522,0-10.039-4.665-10.039-10s4.518-10,10.039-10h21.526h28.599c5.522,0,10.039-4.167,10.039-9.5
					s-4.518-9.5-10.039-9.5h-28.599h-57.147c-5.522,0-10.039-4.665-10.039-10s4.517-10,10.038-10h0.001h19.433h28.597
					c5.522,0,10.039-4.608,10.039-9.943s-4.481-9.712-9.957-9.712s-9.957-3.851-9.957-9.186s4.518-9.158,10.039-9.158h32.007h28.599
					c5.522,0,10.039-5.167,10.039-10.5s-4.518-10.5-10.039-10.5h-28.599h-4.763c-5.522,0-10.039-4.006-10.039-9s4.518-9,10.039-9
					h3.901c5.522,0,10.039-4.667,10.039-10s-4.518-10-10.039-10h-28.599H433.62c-5.522,0-10.039-3.665-10.039-9s4.518-9,10.039-9
					h6.118c5.522,0,10.039-5.165,10.039-10.5s-4.518-10.5-10.039-10.5h-16.59c-5.522,0-10.039-4.165-10.039-9.5
					s4.518-9.5,10.039-9.5h51.911h28.599c5.522,0,10.039-4.167,10.039-9.5s-4.518-9.5-10.039-9.5H475.06h-23.62
					c-5.522,0-10.039-4.165-10.039-9.5s4.518-9.5,10.039-9.5h6.118c5.522,0,10.039-4.165,10.039-9.5s-4.518-9.5-10.039-9.5h-28.599
					h-8.96c-5.522,0-10.039-5.165-10.039-10.5s4.518-10.5,10.039-10.5h62.392h28.599c5.522,0,10.039-3.667,10.039-9
					s-4.518-9-10.039-9h-28.6h-28.856c-5.522,0-10.039-4.165-10.039-9.5s4.518-9.5,10.039-9.5h21.834
					c5.522,0,10.039-4.165,10.039-9.5s-4.518-9.5-10.039-9.5H446.77h-16.29c-5.522,0-10.039-4.665-10.039-10s4.518-10,10.039-10
					h38.289h28.599c5.522,0,10.039-4.667,10.039-10s-4.518-10-10.039-10h-27.07c-5.522,0-10.039-4.165-10.039-9.5
					s4.518-9.5,10.039-9.5h21.526h28.599c5.522,0,10.039-4.665,10.039-10s-4.518-10-10.039-10h-28.599H136.045
					c-5.522,0-10.039,4.665-10.039,10s4.518,10,10.039,10h35.148h28.599c5.522,0,10.039,4.165,10.039,9.5s-4.518,9.5-10.039,9.5
					h-28.599h-11.046c-5.522,0-10.039,4.667-10.039,10s4.518,10,10.039,10h62.391h28.599c5.522,0,10.039,4.665,10.039,10
					s-4.518,10-10.039,10h-28.599h-29.912c-5.522,0-10.039,4.165-10.039,9.5s4.518,9.5,10.039,9.5h11.354
					c5.522,0,10.039,4.165,10.039,9.5s-4.518,9.5-10.039,9.5h-28.599h-28.856c-5.522,0-10.039,3.667-10.039,9s4.518,9,10.039,9
					h17.337h28.599c5.522,0,10.039,5.165,10.039,10.5c0,5.335-4.518,10.5-10.039,10.5h-2.977c-5.522,0-10.039,4.165-10.039,9.5
					s4.518,9.5,10.039,9.5h32.314c5.522,0,10.039,4.165,10.039,9.5s-4.518,9.5-10.039,9.5H193.2h-21.526
					c-5.522,0-10.039,4.167-10.039,9.5s4.518,9.5,10.039,9.5h57.147h28.599c5.522,0,10.039,4.165,10.039,9.5s-4.518,9.5-10.039,9.5
					h-28.599h-19.432c-5.522,0-10.039,4.849-10.039,10.184s4.481,10.026,9.957,10.026s9.957,4.047,9.957,9.382
					s-4.518,9.408-10.039,9.408h-28.599H148.62c-5.522,0-10.039,4.667-10.039,10s4.518,10,10.039,10h4.763h28.599
					c5.522,0,10.039,4.006,10.039,9s-4.518,9-10.039,9h-3.9c-5.522,0-10.039,5.167-10.039,10.5s4.518,10.5,10.039,10.5h32.006
					h28.599c5.522,0,10.039,4.165,10.039,9.5s-4.518,9.5-10.039,9.5h-6.118c-5.522,0-10.039,4.165-10.039,9.5s4.518,9.5,10.039,9.5
					h16.589c5.522,0,10.039,4.665,10.039,10s-4.518,10-10.039,10h-28.599h-51.911c-5.522,0-10.039,4.167-10.039,9.5
					s4.518,9.5,10.039,9.5h23.62h28.599c5.522,0,10.039,4.665,10.039,10s-4.518,10-10.039,10h-6.118
					c-5.522,0-10.039,4.165-10.039,9.5s4.518,9.5,10.039,9.5h8.96h28.599c5.522,0,10.039,4.165,10.039,9.5s-4.518,9.5-10.039,9.5
					h-28.599h-62.391c-5.522,0-10.039,4.667-10.039,10s4.518,10,10.039,10h28.856h28.599c5.522,0,10.039,3.665,10.039,9
					s-4.518,9-10.039,9h-21.834c-5.522,0-10.039,5.165-10.039,10.5s4.518,10.5,10.039,10.5h16.29h28.599
					c5.522,0,10.039,3.665,10.039,9c0,5.335-4.518,9-10.039,9h-28.599H174.94c-5.522,0-10.039,4.167-10.039,9.5
					s4.518,9.5,10.039,9.5h27.07c5.522,0,10.039,4.665,10.039,10s-4.518,10-10.039,10h-28.6h-21.526
					c-5.522,0-10.039,4.165-10.039,9.5s4.518,9.5,10.039,9.5h355.779h28.599c5.522,0,10.039-4.165,10.039-9.5
					S541.783,562.333,536.262,562.333z"/>
			</g>
		</g>
	</g>
</g>
<g id="Warstwa_3">
</g>
<g id="Warstwa_5" display="none">
	<g display="inline">
		<path fill="#D72233" d="M564.721,689.874c6.275,0,11.409,4.786,11.409,10.5s-5.134,10.5-11.409,10.5H127.909
			c-6.275,0-11.409-4.786-11.409-10.5s5.134-10.5,11.409-10.5h56.963c6.275,0,11.409-4.786,11.409-10.5s-5.134-10.5-11.409-10.5
			h-30.763c-6.275,0-11.409-4.788-11.409-10.5s5.134-10.5,11.409-10.5h76.013c6.275,0,11.409-4.286,11.409-10s-5.134-10-11.409-10
			h-51.013c-6.275,0-11.409-4.786-11.409-10.5s5.134-10.5,11.409-10.5h24.813c6.275,0,11.409-4.786,11.409-10.5
			s-5.134-10.5-11.409-10.5h-65.293c-6.275,0-11.409-4.788-11.409-10.5s5.134-10.5,11.409-10.5h103.403
			c6.275,0,11.409-4.286,11.409-10s-5.134-10-11.409-10h-42.683c-6.275,0-11.409-4.786-11.409-10.5s5.134-10.5,11.409-10.5h6.953
			c6.275,0,11.409-4.786,11.409-10.5s-5.134-10.5-11.409-10.5h-59.343c-6.275,0-11.409-4.788-11.409-10.5s5.134-10.5,11.409-10.5
			h91.493c6.275,0,11.409-4.786,11.409-10.5s-5.134-10.5-11.409-10.5h-18.853c-6.275,0-11.409-4.286-11.409-10s5.134-10,11.409-10
			h6.953c6.275,0,11.409-4.786,11.409-10.5s-5.134-10.5-11.409-10.5h-68.873c-6.275,0-11.409-4.788-11.409-10.5
			s5.134-10.5,11.409-10.5h4.433c6.275,0,11.409-4.151,11.409-9.5s-5.134-9.5-11.409-9.5h-37.913c-6.275,0-11.409-4.788-11.409-10.5
			s5.134-10.5,11.409-10.5h68.873c6.275,0,11.409-4.73,11.409-10.445s-5.092-10.418-11.315-10.418s-11.315-4.854-11.315-10.569
			c0-5.714,5.134-10.569,11.409-10.569h54.583c6.275,0,11.409-4.286,11.409-10s-5.134-10-11.409-10H150.4
			c-6.275,0-11.409-4.788-11.409-10.5s5.134-10.5,11.409-10.5h56.963c6.275,0,11.409-4.786,11.409-10.5s-5.134-10.5-11.409-10.5
			H170.64c-6.275,0-11.409-4.785-11.409-10.5s5.134-10.5,11.409-10.5h3.383c6.275,0,11.409-4.786,11.409-10.5
			s-5.134-10.5-11.409-10.5H121.82c-6.275,0-11.409-4.288-11.409-10s5.134-10,11.409-10h65.293c6.275,0,11.409-4.786,11.409-10.5
			s-5.134-10.5-11.409-10.5H174.21c-6.275,0-11.409-4.785-11.409-10.5s5.134-10.5,11.409-10.5h66.493
			c6.275,0,11.409-4.785,11.409-10.5s-5.134-10.5-11.409-10.5H137.299c-6.275,0-11.409-4.288-11.409-10s5.134-10,11.409-10h45.053
			c6.275,0,11.409-4.785,11.409-10.5s-5.134-10.5-11.409-10.5h-72.443c-6.275,0-11.409-4.786-11.409-10.5s5.134-10.5,11.409-10.5
			h436.813c6.275,0,11.409,4.786,11.409,10.5s-5.134,10.5-11.409,10.5h-56.963c-6.275,0-11.409,4.785-11.409,10.5
			s5.134,10.5,11.409,10.5h30.763c6.275,0,11.409,4.288,11.409,10s-5.134,10-11.409,10h-76.013c-6.275,0-11.409,4.785-11.409,10.5
			s5.134,10.5,11.409,10.5h51.013c6.275,0,11.409,4.785,11.409,10.5s-5.134,10.5-11.409,10.5h-24.813
			c-6.275,0-11.409,4.786-11.409,10.5s5.134,10.5,11.409,10.5h65.293c6.275,0,11.409,4.288,11.409,10s-5.134,10-11.409,10H432.599
			c-6.275,0-11.409,4.786-11.409,10.5s5.134,10.5,11.409,10.5h42.683c6.275,0,11.409,4.785,11.409,10.5s-5.134,10.5-11.409,10.5
			h-6.953c-6.275,0-11.409,4.786-11.409,10.5s5.134,10.5,11.409,10.5h59.343c6.275,0,11.409,4.788,11.409,10.5
			s-5.134,10.5-11.409,10.5h-91.493c-6.275,0-11.409,4.286-11.409,10s5.134,10,11.409,10h18.853c6.275,0,11.409,4.785,11.409,10.5
			s-5.134,10.5-11.409,10.5h-6.953c-6.275,0-11.409,4.785-11.409,10.5s5.134,10.5,11.409,10.5h68.873
			c6.275,0,11.409,4.788,11.409,10.5s-5.134,10.5-11.409,10.5h-4.433c-6.275,0-11.409,4.151-11.409,9.5s5.134,9.5,11.409,9.5h37.913
			c6.275,0,11.409,4.788,11.409,10.5s-5.134,10.5-11.409,10.5h-68.873c-6.275,0-11.409,4.616-11.409,10.33s5.092,10.36,11.315,10.36
			s11.315,4.441,11.315,10.155c0,5.715-5.134,10.155-11.409,10.155h-54.583c-6.275,0-11.409,4.786-11.409,10.5
			s5.134,10.5,11.409,10.5h97.443c6.275,0,11.409,4.788,11.409,10.5s-5.134,10.5-11.409,10.5h-56.963
			c-6.275,0-11.409,4.786-11.409,10.5s5.134,10.5,11.409,10.5h36.723c6.275,0,11.409,4.786,11.409,10.5s-5.134,10.5-11.409,10.5
			h-3.383c-6.275,0-11.409,4.286-11.409,10s5.134,10,11.409,10h52.203c6.275,0,11.409,4.788,11.409,10.5s-5.134,10.5-11.409,10.5
			h-65.293c-6.275,0-11.409,4.786-11.409,10.5s5.134,10.5,11.409,10.5h12.903c6.275,0,11.409,4.786,11.409,10.5
			s-5.134,10.5-11.409,10.5h-66.493c-6.275,0-11.409,4.286-11.409,10s5.134,10,11.409,10h103.403c6.275,0,11.409,4.788,11.409,10.5
			s-5.134,10.5-11.409,10.5h-45.053c-6.275,0-11.409,4.786-11.409,10.5s5.134,10.5,11.409,10.5h72.443V689.874z"/>
	</g>
</g>
</svg>
