<?xml version="1.0" encoding="utf-8"?>
<!-- Generator: Adobe Illustrator 17.0.0, SVG Export Plug-In . SVG Version: 6.00 Build 0)  -->
<!DOCTYPE svg PUBLIC "-//W3C//DTD SVG 1.1//EN" "http://www.w3.org/Graphics/SVG/1.1/DTD/svg11.dtd">
<svg version="1.1" xmlns="http://www.w3.org/2000/svg" xmlns:xlink="http://www.w3.org/1999/xlink" x="0px" y="0px"
	 width="331.514px" height="339.189px" viewBox="0 0 331.514 339.189" enable-background="new 0 0 331.514 339.189"
	 xml:space="preserve">
<g id="Warstwa_1">
	<g id="Warstwa_4_kopia_4">
		<circle fill="#E83739" cx="165.541" cy="170.162" r="165.973"/>
		<text transform="matrix(1 0 0 1 174.4142 146.6487)" fill="#F5422E" font-family="'MyriadPro-Regular'" font-size="12">f5422e</text>
	</g>
	<g id="Warstwa_4_kopia_5">
		<g>
			<g>
				<g>
					<g>
						<defs>
							<circle id="SVGID_1_" cx="165.541" cy="170.162" r="165.973"/>
						</defs>
						<clipPath id="SVGID_2_">
							<use xlink:href="#SVGID_1_"  overflow="visible"/>
						</clipPath>
						<g clip-path="url(#SVGID_2_)">
							<path fill="none" d="M139.465,195.601c0.261-0.508,0.557-0.998,0.903-1.456c0.112-0.148,0.237-0.285,0.357-0.428
								c0.1-0.119,0.193-0.242,0.298-0.357c0.19-0.206,0.395-0.401,0.602-0.593c0.046-0.043,0.088-0.09,0.135-0.133
								c0.195-0.175,0.404-0.336,0.612-0.498c0.068-0.053,0.13-0.111,0.2-0.162c0.147-0.108,0.305-0.205,0.458-0.306
								c0.142-0.094,0.278-0.195,0.424-0.283c0.066-0.04,0.138-0.073,0.206-0.112c1.779-1.026,3.889-1.625,6.152-1.625
								C145.229,189.648,141.271,192.071,139.465,195.601z"/>
							<path fill="none" d="M161.415,220.431c0-0.004,0-0.007,0-0.01c0-0.102-0.013-0.2-0.017-0.301
								c-0.177-5.574-5.373-9.906-11.489-9.906c-5.505,0-10.267-3.605-11.293-8.393c0.983,4.794,5.595,8.393,11.108,8.393
								c6.219,0,11.302,4.497,11.309,10.207c-0.006,5.71-5.137,10.228-11.408,10.228
								C155.899,230.648,161.415,226.145,161.415,220.431z"/>
							<path fill="none" d="M-115.308,86.648c-0.753,0-1.485,0.073-2.195,0.203C-116.792,86.721-116.059,86.648-115.308,86.648z"/>
							<path fill="#DD2F40" d="M154.943,14.148c0,5.715-5.134,10.5-11.409,10.5h-6.953c-6.275,0-11.409,4.786-11.409,10.5
								s5.134,10.5,11.409,10.5h23.18c-6.275,0-11.409-4.786-11.409-10.5s5.134-10.5,11.409-10.5h6.953
								c6.275,0,11.409-4.785,11.409-10.5c0-5.714-5.134-10.5-11.409-10.5h-23.18C149.809,3.648,154.943,8.434,154.943,14.148z"/>
							<path fill="#2A2F8D" d="M89.443-6.852c0,5.714,5.134,10.5,11.409,10.5h23.18c-6.275,0-11.409-4.786-11.409-10.5
								s5.134-10.5,11.409-10.5h-23.18C94.577-17.352,89.443-12.566,89.443-6.852z"/>
							<path fill="#2A2F8D" d="M215.663-27.352c0,5.712-5.134,10-11.409,10h23.18c6.275,0,11.409-4.288,11.409-10
								s-5.134-10-11.409-10h-23.18C210.529-37.352,215.663-33.063,215.663-27.352z"/>
							<path fill="#DD2F40" d="M207.333,56.148c0,5.712-5.134,10.5-11.409,10.5h23.18c6.275,0,11.409-4.788,11.409-10.5
								s-5.134-10.5-11.409-10.5h-23.18C202.199,45.648,207.333,50.437,207.333,56.148z"/>
							<path fill="#DD2F40" d="M93.023,76.648c0,5.714,5.134,10,11.409,10h18.853c6.275,0,11.409,4.786,11.409,10.5
								c0,5.715-5.134,10.5-11.409,10.5h-6.953c-6.275,0-11.409,4.786-11.409,10.5c0,5.715,5.134,10.5,11.409,10.5h23.18
								c-6.275,0-11.409-4.785-11.409-10.5c0-5.714,5.134-10.5,11.409-10.5h6.953c6.275,0,11.409-4.785,11.409-10.5
								c0-5.714-5.134-10.5-11.409-10.5h-18.853c-6.275,0-11.409-4.286-11.409-10s5.134-10,11.409-10h-23.18
								C98.157,66.648,93.023,70.934,93.023,76.648z"/>
							<path fill="#2A2F8D" d="M127.553-47.852c0,5.714,5.134,10.5,11.409,10.5h23.18c-6.275,0-11.409-4.786-11.409-10.5
								s5.134-10.5,11.409-10.5h-23.18C132.687-58.352,127.553-53.566,127.553-47.852z"/>
							<path fill="#2A2F8D" d="M101.353-89.852c0,5.715,5.134,10.5,11.409,10.5h23.18c-6.275,0-11.409-4.785-11.409-10.5
								c0-5.714,5.134-10.5,11.409-10.5h-23.18C106.487-100.352,101.353-95.566,101.353-89.852z"/>
							<path fill="#2A2F8D" d="M146.603-130.852c0,5.715,5.134,10.5,11.409,10.5h23.18c-6.275,0-11.409-4.785-11.409-10.5
								c0-5.714,5.134-10.5,11.409-10.5h-23.18C151.737-141.352,146.603-136.566,146.603-130.852z"/>
							<path fill="#2A2F8D" d="M175.183-68.852c0,5.715-5.134,10.5-11.409,10.5h23.18c6.275,0,11.409-4.785,11.409-10.5
								c0-5.714-5.134-10.5-11.409-10.5h-23.18C170.049-79.352,175.183-74.566,175.183-68.852z"/>
							<path fill="#2A2F8D" d="M226.383-151.852c0,5.714-5.134,10.5-11.409,10.5h23.18c6.275,0,11.409-4.786,11.409-10.5
								s-5.134-10.5-11.409-10.5h-23.18C221.249-162.352,226.383-157.566,226.383-151.852z"/>
							<path fill="#2A2F8D" d="M200.183-110.352c0,5.712-5.134,10-11.409,10h23.18c6.275,0,11.409-4.288,11.409-10
								s-5.134-10-11.409-10h-23.18C195.049-120.352,200.183-116.063,200.183-110.352z"/>
							<path fill="#DD2F40" d="M196.613,139.148c0,5.712-5.134,10.5-11.409,10.5h-4.433c-6.275,0-11.409,4.151-11.409,9.5
								s5.134,9.5,11.409,9.5h23.18c-6.275,0-11.409-4.151-11.409-9.5s5.134-9.5,11.409-9.5h4.433c6.275,0,11.409-4.788,11.409-10.5
								s-5.134-10.5-11.409-10.5h-23.18C191.479,128.648,196.613,133.437,196.613,139.148z"/>
							<path fill="#DD2F40" d="M183.653,304.149c0,5.714-5.134,10.5-11.409,10.5h-3.383c-6.275,0-11.409,4.286-11.409,10
								s5.134,10,11.409,10h23.18c-6.275,0-11.409-4.286-11.409-10s5.134-10,11.409-10h3.383c6.275,0,11.409-4.786,11.409-10.5
								s-5.134-10.5-11.409-10.5h-23.18C178.519,293.649,183.653,298.434,183.653,304.149z"/>
							<path fill="#DD2F40" d="M230.093,179.148c0,5.712-5.134,10.5-11.409,10.5h23.18c6.275,0,11.409-4.788,11.409-10.5
								s-5.134-10.5-11.409-10.5h-23.18C224.959,168.648,230.093,173.437,230.093,179.148z"/>
							<path fill="#2A2F8D" d="M144.363,366.149c0,5.714,5.134,10.5,11.409,10.5h12.903c6.275,0,11.409,4.786,11.409,10.5
								s-5.134,10.5-11.409,10.5h23.18c6.275,0,11.409-4.786,11.409-10.5s-5.134-10.5-11.409-10.5h-12.903
								c-6.275,0-11.409-4.786-11.409-10.5s5.134-10.5,11.409-10.5h-23.18C149.497,355.649,144.363,360.434,144.363,366.149z"/>
							<path fill="#2A2F8D" d="M256.154,459.649h-23.18c6.275,0,11.409,4.786,11.409,10.5s-5.134,10.5-11.409,10.5h23.18
								c6.275,0,11.409-4.786,11.409-10.5S262.429,459.649,256.154,459.649z"/>
							<path fill="#2A2F8D" d="M216.993,428.149c0,5.712-5.134,10.5-11.409,10.5h23.18c6.275,0,11.409-4.788,11.409-10.5
								c0-5.712-5.134-10.5-11.409-10.5h-23.18C211.859,417.649,216.993,422.437,216.993,428.149z"/>
							<path fill="#2A2F8D" d="M232.473,345.149c0,5.712-5.134,10.5-11.409,10.5h23.18c6.275,0,11.409-4.788,11.409-10.5
								c0-5.712-5.134-10.5-11.409-10.5h-23.18C227.339,334.649,232.473,339.437,232.473,345.149z"/>
							<path fill="#2A2F8D" d="M90.773,407.649c0,5.714,5.134,10,11.409,10h23.18c-6.275,0-11.409-4.286-11.409-10
								s5.134-10,11.409-10h-23.18C95.907,397.649,90.773,401.934,90.773,407.649z"/>
							<path fill="#DD2F40" d="M203.893,262.149c0,5.712-5.134,10.5-11.409,10.5h23.18c6.275,0,11.409-4.788,11.409-10.5
								c0-5.712-5.134-10.5-11.409-10.5h-23.18C198.759,251.648,203.893,256.437,203.893,262.149z"/>
							<path fill="#DD2F40" d="M83.633,241.148c0,5.714,5.134,10.5,11.409,10.5h23.18c-6.275,0-11.409-4.786-11.409-10.5
								s5.134-10.5,11.409-10.5h-23.18C88.767,230.648,83.633,235.434,83.633,241.148z"/>
							<path fill="#2A2F8D" d="M140.725,193.717c0.1-0.119,0.193-0.242,0.298-0.357
								C140.918,193.475,140.825,193.599,140.725,193.717z"/>
							<path fill="#2A2F8D" d="M143.454,191.385c-0.146,0.088-0.283,0.189-0.424,0.283
								C143.171,191.574,143.307,191.474,143.454,191.385z"/>
							<path fill="#2A2F8D" d="M138.415,199.895c0-2.142,0.721-4.117,1.953-5.75c-0.346,0.458-0.642,0.948-0.903,1.456
								C138.797,196.904,138.415,198.354,138.415,199.895z"/>
							<path fill="#2A2F8D" d="M142.572,191.975c-0.069,0.051-0.132,0.109-0.2,0.162
								C142.44,192.084,142.502,192.026,142.572,191.975z"/>
							<path fill="#2A2F8D" d="M141.76,192.635c-0.047,0.042-0.088,0.09-0.135,0.133
								C141.671,192.724,141.713,192.677,141.76,192.635z"/>
							<path fill="#DD2F40" d="M138.415,199.906c0,0.004,0,0.007,0,0.01c0,0.652,0.074,1.287,0.201,1.905
								c1.027,4.788,5.788,8.393,11.293,8.393c6.116,0,11.312,4.332,11.489,9.906c-0.177-5.564-5.189-9.906-11.298-9.906
								c6.223,0,11.315,4.482,11.315,10.197c0,0.004,0,0.007,0,0.01s0,0.007,0,0.01c0,5.715-5.516,10.218-11.79,10.218h23.18
								c6.275,0,11.409-4.524,11.409-10.238s-5.092-10.197-11.315-10.197s-11.315-4.583-11.315-10.297s5.134-10.268,11.409-10.268
								h-23.169C143.552,189.648,138.415,194.196,138.415,199.906z"/>
							<path fill="#2A2F8D" d="M143.659,191.274c1.781-1.026,3.896-1.625,6.164-1.625h-0.011
								C147.548,189.648,145.438,190.248,143.659,191.274z"/>
							<path fill="#2A2F8D" d="M149.123,449.149c0,5.714,5.134,10.5,11.409,10.5h23.18c-6.275,0-11.409-4.786-11.409-10.5
								s5.134-10.5,11.409-10.5h-23.18C154.257,438.649,149.123,443.434,149.123,449.149z"/>
							<path fill="#DD2F40" d="M124.113,283.149c0,5.714,5.134,10.5,11.409,10.5h23.18c-6.275,0-11.409-4.786-11.409-10.5
								s5.134-10.5,11.409-10.5h-23.18C129.247,272.649,124.113,277.434,124.113,283.149z"/>
							<path fill="#D31E27" d="M244.383,470.149c0-5.714-5.134-10.5-11.409-10.5h-49.263h-23.18c-6.275,0-11.409-4.786-11.409-10.5
								s5.134-10.5,11.409-10.5h23.18h21.872c6.275,0,11.409-4.788,11.409-10.5c0-5.712-5.134-10.5-11.409-10.5h-80.222h-23.18
								c-6.275,0-11.409-4.286-11.409-10s5.134-10,11.409-10h23.18h43.313c6.275,0,11.409-4.786,11.409-10.5
								s-5.134-10.5-11.409-10.5h-12.903c-6.275,0-11.409-4.786-11.409-10.5s5.134-10.5,11.409-10.5h23.18h42.112
								c6.275,0,11.409-4.788,11.409-10.5c0-5.712-5.134-10.5-11.409-10.5h-29.022h-23.18c-6.275,0-11.409-4.286-11.409-10
								s5.134-10,11.409-10h3.383c6.275,0,11.409-4.786,11.409-10.5s-5.134-10.5-11.409-10.5h-13.543h-23.18
								c-6.275,0-11.409-4.786-11.409-10.5s5.134-10.5,11.409-10.5h23.18h33.783c6.275,0,11.409-4.788,11.409-10.5
								c0-5.712-5.134-10.5-11.409-10.5h-74.263h-23.18c-6.275,0-11.409-4.786-11.409-10.5s5.134-10.5,11.409-10.5h23.18h31.403
								c6.271,0,11.402-4.518,11.408-10.228c-0.006-5.709-5.089-10.207-11.309-10.207c-5.513,0-10.126-3.599-11.108-8.393
								c-0.127-0.618-0.201-1.252-0.201-1.905c0-0.004,0-0.007,0-0.01c0-5.709,5.137-10.257,11.408-10.257
								c-2.268,0-4.382,0.599-6.164,1.625c-0.067,0.039-0.139,0.072-0.206,0.112c-0.146,0.088-0.283,0.189-0.424,0.283
								c-0.153,0.102-0.311,0.198-0.458,0.306c-0.069,0.051-0.132,0.109-0.2,0.162c-0.209,0.162-0.417,0.323-0.612,0.498
								c-0.047,0.042-0.088,0.09-0.135,0.133c-0.207,0.192-0.412,0.387-0.602,0.593c-0.105,0.114-0.198,0.238-0.298,0.357
								c-0.12,0.142-0.245,0.28-0.357,0.428c-1.232,1.633-1.953,3.609-1.953,5.75c0-1.541,0.383-2.991,1.05-4.294
								c1.807-3.53,5.764-5.952,10.347-5.952h0.011h23.169h45.693c6.275,0,11.409-4.788,11.409-10.5s-5.134-10.5-11.409-10.5H203.95
								h-23.18c-6.275,0-11.409-4.151-11.409-9.5s5.134-9.5,11.409-9.5h4.433c6.275,0,11.409-4.788,11.409-10.5
								s-5.134-10.5-11.409-10.5H139.51h-23.18c-6.275,0-11.409-4.785-11.409-10.5c0-5.714,5.134-10.5,11.409-10.5h6.953
								c6.275,0,11.409-4.785,11.409-10.5c0-5.714-5.134-10.5-11.409-10.5H104.43c-6.275,0-11.409-4.286-11.409-10
								s5.134-10,11.409-10h23.18h68.313c6.275,0,11.409-4.788,11.409-10.5s-5.134-10.5-11.409-10.5H159.76h-23.18
								c-6.275,0-11.409-4.786-11.409-10.5s5.134-10.5,11.409-10.5h6.953c6.275,0,11.409-4.785,11.409-10.5
								c0-5.714-5.134-10.5-11.409-10.5H124.03h-23.18c-6.275,0-11.409-4.786-11.409-10.5s5.134-10.5,11.409-10.5h23.18h80.222
								c6.275,0,11.409-4.288,11.409-10s-5.134-10-11.409-10H162.14h-23.18c-6.275,0-11.409-4.786-11.409-10.5
								s5.134-10.5,11.409-10.5h23.18h1.633c6.275,0,11.409-4.785,11.409-10.5c0-5.714-5.134-10.5-11.409-10.5H135.94h-23.18
								c-6.275,0-11.409-4.785-11.409-10.5c0-5.714,5.134-10.5,11.409-10.5h23.18h52.833c6.275,0,11.409-4.288,11.409-10
								s-5.134-10-11.409-10h-7.583h-23.18c-6.275,0-11.409-4.785-11.409-10.5c0-5.714,5.134-10.5,11.409-10.5h23.18h33.783
								c6.275,0,11.409-4.786,11.409-10.5s-5.134-10.5-11.409-10.5H-198.66h-23.18c-6.275,0-11.409,4.786-11.409,10.5
								s5.134,10.5,11.409,10.5h23.18h49.263c6.275,0,11.409,4.786,11.409,10.5c0,5.715-5.134,10.5-11.409,10.5h-21.872h-23.18
								c-6.275,0-11.409,4.288-11.409,10s5.134,10,11.409,10h23.18h80.222c6.275,0,11.409,4.786,11.409,10.5
								c0,5.715-5.134,10.5-11.409,10.5h-43.312h-23.18c-6.275,0-11.409,4.786-11.409,10.5c0,5.715,5.134,10.5,11.409,10.5h12.903
								c6.275,0,11.409,4.786,11.409,10.5s-5.134,10.5-11.409,10.5h-42.113h-23.18c-6.275,0-11.409,4.288-11.409,10
								s5.134,10,11.409,10h23.18h29.023c6.275,0,11.409,4.786,11.409,10.5s-5.134,10.5-11.409,10.5h-3.383
								c-6.275,0-11.409,4.786-11.409,10.5c0,5.715,5.134,10.5,11.409,10.5h23.18h13.543c6.275,0,11.409,4.786,11.409,10.5
								s-5.134,10.5-11.409,10.5h-33.783h-23.18c-6.275,0-11.409,4.788-11.409,10.5s5.134,10.5,11.409,10.5h23.18h74.263
								c6.275,0,11.409,4.286,11.409,10s-5.134,10-11.409,10h-31.403c-0.751,0-1.484,0.073-2.195,0.203
								c0.709-0.131,1.442-0.203,2.195-0.203h-23.18c-6.275,0-11.409,4.771-11.409,10.485c0,5.715,5.092,10.527,11.315,10.527
								s11.315,4.766,11.315,10.48c0,5.715-5.134,10.508-11.409,10.508h-45.693h-23.18c-6.275,0-11.409,4.788-11.409,10.5
								s5.134,10.5,11.409,10.5h23.18h14.733c6.275,0,11.409,4.151,11.409,9.5s-5.134,9.5-11.409,9.5h-4.433
								c-6.275,0-11.409,4.788-11.409,10.5s5.134,10.5,11.409,10.5h23.18h45.692c6.275,0,11.409,4.786,11.409,10.5
								s-5.134,10.5-11.409,10.5h-6.953c-6.275,0-11.409,4.286-11.409,10s5.134,10,11.409,10h18.853
								c6.275,0,11.409,4.786,11.409,10.5s-5.134,10.5-11.409,10.5h-68.312h-23.18c-6.275,0-11.409,4.788-11.409,10.5
								s5.134,10.5,11.409,10.5h23.18h36.163c6.275,0,11.409,4.786,11.409,10.5s-5.134,10.5-11.409,10.5h-6.953
								c-6.275,0-11.409,4.786-11.409,10.5s5.134,10.5,11.409,10.5h23.18h19.503c6.275,0,11.409,4.286,11.409,10
								s-5.134,10-11.409,10h-80.223h-23.18c-6.275,0-11.409,4.788-11.409,10.5c0,5.712,5.134,10.5,11.409,10.5h23.18h42.113
								c6.275,0,11.409,4.786,11.409,10.5s-5.134,10.5-11.409,10.5h-1.632h-23.18c-6.275,0-11.409,4.786-11.409,10.5
								s5.134,10.5,11.409,10.5h23.18h27.833c6.275,0,11.409,4.286,11.409,10s-5.134,10-11.409,10h-52.833h-23.18
								c-6.275,0-11.409,4.788-11.409,10.5c0,5.712,5.134,10.5,11.409,10.5h23.18h7.583c6.275,0,11.409,4.786,11.409,10.5
								s-5.134,10.5-11.409,10.5h-33.783h-23.18c-6.275,0-11.409,4.786-11.409,10.5s5.134,10.5,11.409,10.5h23.18h413.633
								C239.249,480.649,244.383,475.863,244.383,470.149z"/>
							<path fill="#212062" d="M161.415,220.41c0-5.714-5.091-10.197-11.315-10.197c6.109,0,11.121,4.342,11.298,9.906
								c0.003,0.101,0.017,0.199,0.017,0.301C161.415,220.417,161.415,220.414,161.415,220.41z"/>
						</g>
					</g>
				</g>
			</g>
		</g>
	</g>
</g>
<g id="Warstwa_2">
</g>
</svg>
