<?xml version="1.0" encoding="utf-8"?>
<!-- Generator: Adobe Illustrator 17.0.0, SVG Export Plug-In . SVG Version: 6.00 Build 0)  -->
<!DOCTYPE svg PUBLIC "-//W3C//DTD SVG 1.1//EN" "http://www.w3.org/Graphics/SVG/1.1/DTD/svg11.dtd">
<svg version="1.1" id="Warstwa_1" xmlns="http://www.w3.org/2000/svg" xmlns:xlink="http://www.w3.org/1999/xlink" x="0px" y="0px"
	 width="331.946px" height="331.946px" viewBox="0 0 331.946 331.946" enable-background="new 0 0 331.946 331.946"
	 xml:space="preserve">
<g id="Warstwa_1_1_" display="none">
	<circle display="inline" fill="#FFB300" cx="235.698" cy="140.581" r="168.581"/>
</g>
<g id="Warstwa_2" display="none">
	<g display="inline">
		<path fill="#C1272D" d="M584.624-6.541c-6.275,0-11.409,4.786-11.409,10.5s5.134,10.5,11.409,10.5h45.055
			c6.275,0,11.409,4.286,11.409,10s-5.134,10-11.409,10H526.278c-6.275,0-11.409,4.786-11.409,10.5s5.134,10.5,11.409,10.5h66.489
			c6.275,0,11.409,4.786,11.409,10.5s-5.134,10.5-11.409,10.5h-12.905c-6.275,0-11.409,4.786-11.409,10.5s5.134,10.5,11.409,10.5
			h65.298c6.275,0,11.409,4.286,11.409,10s-5.134,10-11.409,10h-52.2c-6.275,0-11.409,4.786-11.409,10.5
			c0,5.714,5.134,10.5,11.409,10.5h3.379c6.275,0,11.409,4.786,11.409,10.5s-5.134,10.5-11.409,10.5h-36.72
			c-6.275,0-11.409,4.786-11.409,10.5s5.134,10.5,11.409,10.5h56.963c6.275,0,11.409,4.786,11.409,10.5s-5.134,10.5-11.409,10.5
			h-97.448c-6.275,0-11.409,4.286-11.409,10s5.134,10,11.409,10h54.581c6.275,0,11.409,4.841,11.409,10.555
			s-5.09,10.472-11.312,10.472s-11.312,4.773-11.312,10.487c0,5.714,5.134,10.487,11.409,10.487h68.87
			c6.275,0,11.409,4.786,11.409,10.5s-5.134,10.5-11.409,10.5h-37.911c-6.275,0-11.409,4.286-11.409,10s-5.134,10-11.409,10H277.412
			c-6.275,0-11.409-4.286-11.409-10s-5.134-10-11.409-10h-4.57c-6.275,0-11.409-4.786-11.409-10.5s5.134-10.5,11.409-10.5h68.87
			c6.275,0,11.409-4.786,11.409-10.5c0-5.714-5.134-10.5-11.409-10.5h-6.951c-6.275,0-11.409-4.786-11.409-10.5
			s5.134-10.5,11.409-10.5h18.859c6.275,0,11.409-4.286,11.409-10s-5.134-10-11.409-10h-91.494c-6.275,0-11.409-4.786-11.409-10.5
			s5.134-10.5,11.409-10.5h59.344c6.275,0,11.409-4.786,11.409-10.5s-5.134-10.5-11.409-10.5H291.7
			c-6.275,0-11.409-4.786-11.409-10.5s5.134-10.5,11.409-10.5h42.674c6.275,0,11.409-4.786,11.409-10.5
			c0-5.714-5.134-10.5-11.409-10.5H230.972c-6.275,0-11.409-4.286-11.409-10s5.134-10,11.409-10h65.298
			c6.275,0,11.409-4.786,11.409-10.5s-5.134-10.5-11.409-10.5h-24.812c-6.275,0-11.409-4.786-11.409-10.5s5.134-10.5,11.409-10.5
			h51.009c6.275,0,11.409-4.786,11.409-10.5s-5.134-10.5-11.409-10.5h-76.015c-6.275,0-11.409-4.286-11.409-10s5.134-10,11.409-10
			h30.766c6.275,0,11.409-4.786,11.409-10.5s-5.134-10.5-11.409-10.5h-56.963c-6.275,0-11.409-4.786-11.409-10.5
			s5.134-10.5,11.409-10.5h436.811c6.275,0,11.409,4.786,11.409,10.5s-5.134,10.5-11.409,10.5h-72.442V-6.541z"/>
	</g>
</g>
<g id="Warstwa_4" display="none">
	<g display="inline">
		
			<image overflow="visible" enable-background="new    " width="405" height="405" xlink:href="2EBCA77.png"  transform="matrix(1 0 0 1 -36.1533 -36.5405)">
		</image>
	</g>
	
		<text transform="matrix(1 0 0 1 174.8467 142.4595)" display="inline" fill="#F5422E" font-family="'MyriadPro-Regular'" font-size="12">f5422e</text>
</g>
<g id="Warstwa_4_kopia_3" display="none">
	<circle display="inline" fill="#F82530" cx="165.973" cy="165.973" r="165.973"/>
	
		<text transform="matrix(1 0 0 1 174.8467 142.4595)" display="inline" fill="#F5422E" font-family="'MyriadPro-Regular'" font-size="12">f5422e</text>
</g>
<g id="Warstwa_4_kopia_4">
	<circle fill="#E83739" cx="165.973" cy="165.973" r="165.973"/>
	<text transform="matrix(1 0 0 1 174.8467 142.4595)" fill="#F5422E" font-family="'MyriadPro-Regular'" font-size="12">f5422e</text>
</g>
<g id="Warstwa_5_kopia">
</g>
<g id="Warstwa_4_kopia_5">
	<g>
		<g>
			<defs>
				<circle id="SVGID_1_" cx="165.973" cy="165.973" r="165.973"/>
			</defs>
			<clipPath id="SVGID_2_">
				<use xlink:href="#SVGID_1_"  overflow="visible"/>
			</clipPath>
			<g clip-path="url(#SVGID_2_)">
				<path fill="none" d="M139.897,191.412c0.261-0.508,0.557-0.998,0.903-1.456c0.112-0.148,0.237-0.285,0.357-0.428
					c0.1-0.119,0.193-0.242,0.298-0.357c0.19-0.206,0.395-0.401,0.602-0.593c0.046-0.043,0.088-0.09,0.135-0.133
					c0.195-0.175,0.404-0.336,0.612-0.498c0.068-0.053,0.13-0.111,0.2-0.162c0.147-0.108,0.305-0.205,0.458-0.306
					c0.142-0.094,0.278-0.195,0.424-0.283c0.066-0.04,0.138-0.073,0.206-0.112c1.779-1.026,3.889-1.625,6.152-1.625
					C145.661,185.459,141.703,187.882,139.897,191.412z"/>
				<path fill="none" d="M161.847,216.242c0-0.004,0-0.007,0-0.01c0-0.102-0.013-0.2-0.017-0.301
					c-0.177-5.574-5.373-9.906-11.489-9.906c-5.505,0-10.267-3.605-11.293-8.393c0.983,4.794,5.595,8.393,11.108,8.393
					c6.219,0,11.302,4.497,11.309,10.207c-0.006,5.71-5.137,10.228-11.408,10.228C156.331,226.459,161.847,221.956,161.847,216.242z
					"/>
				<path fill="none" d="M-114.876,82.459c-0.753,0-1.485,0.073-2.195,0.203C-116.36,82.532-115.627,82.459-114.876,82.459z"/>
				<path fill="#DB2831" d="M155.375,9.959c0,5.715-5.134,10.5-11.409,10.5h-6.953c-6.275,0-11.409,4.786-11.409,10.5
					s5.134,10.5,11.409,10.5h23.18c-6.275,0-11.409-4.786-11.409-10.5s5.134-10.5,11.409-10.5h6.953
					c6.275,0,11.409-4.785,11.409-10.5c0-5.714-5.134-10.5-11.409-10.5h-23.18C150.241-0.541,155.375,4.245,155.375,9.959z"/>
				<path fill="#2A2F8D" d="M89.875-11.041c0,5.714,5.134,10.5,11.409,10.5h23.18c-6.275,0-11.409-4.786-11.409-10.5
					s5.134-10.5,11.409-10.5h-23.18C95.009-21.541,89.875-16.755,89.875-11.041z"/>
				<path fill="#2A2F8D" d="M216.095-31.541c0,5.712-5.134,10-11.409,10h23.18c6.275,0,11.409-4.288,11.409-10s-5.134-10-11.409-10
					h-23.18C210.961-41.541,216.095-37.252,216.095-31.541z"/>
				<path fill="#DB2831" d="M207.765,51.959c0,5.712-5.134,10.5-11.409,10.5h23.18c6.275,0,11.409-4.788,11.409-10.5
					s-5.134-10.5-11.409-10.5h-23.18C202.631,41.459,207.765,46.248,207.765,51.959z"/>
				<path fill="#DB2831" d="M93.455,72.459c0,5.714,5.134,10,11.409,10h18.853c6.275,0,11.409,4.786,11.409,10.5
					c0,5.715-5.134,10.5-11.409,10.5h-6.953c-6.275,0-11.409,4.786-11.409,10.5c0,5.715,5.134,10.5,11.409,10.5h23.18
					c-6.275,0-11.409-4.785-11.409-10.5c0-5.714,5.134-10.5,11.409-10.5h6.953c6.275,0,11.409-4.785,11.409-10.5
					c0-5.714-5.134-10.5-11.409-10.5h-18.853c-6.275,0-11.409-4.286-11.409-10s5.134-10,11.409-10h-23.18
					C98.589,62.459,93.455,66.745,93.455,72.459z"/>
				<path fill="#2A2F8D" d="M127.985-52.041c0,5.714,5.134,10.5,11.409,10.5h23.18c-6.275,0-11.409-4.786-11.409-10.5
					s5.134-10.5,11.409-10.5h-23.18C133.119-62.541,127.985-57.755,127.985-52.041z"/>
				<path fill="#2A2F8D" d="M101.785-94.041c0,5.715,5.134,10.5,11.409,10.5h23.18c-6.275,0-11.409-4.785-11.409-10.5
					c0-5.714,5.134-10.5,11.409-10.5h-23.18C106.919-104.541,101.785-99.755,101.785-94.041z"/>
				<path fill="#2A2F8D" d="M147.035-135.041c0,5.715,5.134,10.5,11.409,10.5h23.18c-6.275,0-11.409-4.785-11.409-10.5
					c0-5.714,5.134-10.5,11.409-10.5h-23.18C152.169-145.541,147.035-140.755,147.035-135.041z"/>
				<path fill="#2A2F8D" d="M175.615-73.041c0,5.715-5.134,10.5-11.409,10.5h23.18c6.275,0,11.409-4.785,11.409-10.5
					c0-5.714-5.134-10.5-11.409-10.5h-23.18C170.481-83.541,175.615-78.755,175.615-73.041z"/>
				<path fill="#2A2F8D" d="M226.815-156.041c0,5.714-5.134,10.5-11.409,10.5h23.18c6.275,0,11.409-4.786,11.409-10.5
					s-5.134-10.5-11.409-10.5h-23.18C221.681-166.541,226.815-161.755,226.815-156.041z"/>
				<path fill="#2A2F8D" d="M200.615-114.541c0,5.712-5.134,10-11.409,10h23.18c6.275,0,11.409-4.288,11.409-10s-5.134-10-11.409-10
					h-23.18C195.481-124.541,200.615-120.252,200.615-114.541z"/>
				<path fill="#DB2831" d="M197.045,134.959c0,5.712-5.134,10.5-11.409,10.5h-4.433c-6.275,0-11.409,4.151-11.409,9.5
					s5.134,9.5,11.409,9.5h23.18c-6.275,0-11.409-4.151-11.409-9.5s5.134-9.5,11.409-9.5h4.433c6.275,0,11.409-4.788,11.409-10.5
					s-5.134-10.5-11.409-10.5h-23.18C191.911,124.459,197.045,129.248,197.045,134.959z"/>
				<path fill="#DB2831" d="M184.085,299.96c0,5.714-5.134,10.5-11.409,10.5h-3.383c-6.275,0-11.409,4.286-11.409,10
					s5.134,10,11.409,10h23.18c-6.275,0-11.409-4.286-11.409-10s5.134-10,11.409-10h3.383c6.275,0,11.409-4.786,11.409-10.5
					s-5.134-10.5-11.409-10.5h-23.18C178.951,289.46,184.085,294.245,184.085,299.96z"/>
				<path fill="#DB2831" d="M230.525,174.959c0,5.712-5.134,10.5-11.409,10.5h23.18c6.275,0,11.409-4.788,11.409-10.5
					s-5.134-10.5-11.409-10.5h-23.18C225.391,164.459,230.525,169.248,230.525,174.959z"/>
				<path fill="#2A2F8D" d="M144.795,361.96c0,5.714,5.134,10.5,11.409,10.5h12.903c6.275,0,11.409,4.786,11.409,10.5
					s-5.134,10.5-11.409,10.5h23.18c6.275,0,11.409-4.786,11.409-10.5s-5.134-10.5-11.409-10.5h-12.903
					c-6.275,0-11.409-4.786-11.409-10.5s5.134-10.5,11.409-10.5h-23.18C149.929,351.46,144.795,356.245,144.795,361.96z"/>
				<path fill="#2A2F8D" d="M256.586,455.46h-23.18c6.275,0,11.409,4.786,11.409,10.5s-5.134,10.5-11.409,10.5h23.18
					c6.275,0,11.409-4.786,11.409-10.5S262.861,455.46,256.586,455.46z"/>
				<path fill="#2A2F8D" d="M217.425,423.96c0,5.712-5.134,10.5-11.409,10.5h23.18c6.275,0,11.409-4.788,11.409-10.5
					c0-5.712-5.134-10.5-11.409-10.5h-23.18C212.291,413.46,217.425,418.248,217.425,423.96z"/>
				<path fill="#2A2F8D" d="M232.905,340.96c0,5.712-5.134,10.5-11.409,10.5h23.18c6.275,0,11.409-4.788,11.409-10.5
					c0-5.712-5.134-10.5-11.409-10.5h-23.18C227.771,330.46,232.905,335.248,232.905,340.96z"/>
				<path fill="#2A2F8D" d="M91.205,403.46c0,5.714,5.134,10,11.409,10h23.18c-6.275,0-11.409-4.286-11.409-10s5.134-10,11.409-10
					h-23.18C96.339,393.46,91.205,397.745,91.205,403.46z"/>
				<path fill="#DB2831" d="M204.325,257.96c0,5.712-5.134,10.5-11.409,10.5h23.18c6.275,0,11.409-4.788,11.409-10.5
					c0-5.712-5.134-10.5-11.409-10.5h-23.18C199.191,247.459,204.325,252.248,204.325,257.96z"/>
				<path fill="#DB2831" d="M84.065,236.959c0,5.714,5.134,10.5,11.409,10.5h23.18c-6.275,0-11.409-4.786-11.409-10.5
					s5.134-10.5,11.409-10.5h-23.18C89.199,226.459,84.065,231.245,84.065,236.959z"/>
				<path fill="#2A2F8D" d="M141.157,189.528c0.1-0.119,0.193-0.242,0.298-0.357C141.35,189.286,141.257,189.41,141.157,189.528z"/>
				<path fill="#2A2F8D" d="M143.886,187.196c-0.146,0.088-0.283,0.189-0.424,0.283
					C143.603,187.385,143.739,187.285,143.886,187.196z"/>
				<path fill="#2A2F8D" d="M138.847,195.706c0-2.142,0.721-4.117,1.953-5.75c-0.346,0.458-0.642,0.948-0.903,1.456
					C139.229,192.715,138.847,194.165,138.847,195.706z"/>
				<path fill="#2A2F8D" d="M143.004,187.786c-0.069,0.051-0.132,0.109-0.2,0.162C142.872,187.895,142.934,187.837,143.004,187.786z
					"/>
				<path fill="#2A2F8D" d="M142.192,188.446c-0.047,0.042-0.088,0.09-0.135,0.133C142.103,188.535,142.145,188.488,142.192,188.446
					z"/>
				<path fill="#DB2831" d="M138.847,195.717c0,0.004,0,0.007,0,0.01c0,0.652,0.074,1.287,0.201,1.905
					c1.027,4.788,5.788,8.393,11.293,8.393c6.116,0,11.312,4.332,11.489,9.906c-0.177-5.564-5.189-9.906-11.298-9.906
					c6.223,0,11.315,4.482,11.315,10.197c0,0.004,0,0.007,0,0.01s0,0.007,0,0.01c0,5.715-5.516,10.218-11.79,10.218h23.18
					c6.275,0,11.409-4.524,11.409-10.238s-5.092-10.197-11.315-10.197s-11.315-4.583-11.315-10.297s5.134-10.268,11.409-10.268
					h-23.169C143.984,185.459,138.847,190.007,138.847,195.717z"/>
				<path fill="#2A2F8D" d="M144.091,187.085c1.781-1.026,3.896-1.625,6.164-1.625h-0.011
					C147.98,185.459,145.87,186.059,144.091,187.085z"/>
				<path fill="#2A2F8D" d="M149.555,444.96c0,5.714,5.134,10.5,11.409,10.5h23.18c-6.275,0-11.409-4.786-11.409-10.5
					s5.134-10.5,11.409-10.5h-23.18C154.689,434.46,149.555,439.245,149.555,444.96z"/>
				<path fill="#DB2831" d="M124.545,278.96c0,5.714,5.134,10.5,11.409,10.5h23.18c-6.275,0-11.409-4.786-11.409-10.5
					s5.134-10.5,11.409-10.5h-23.18C129.679,268.46,124.545,273.245,124.545,278.96z"/>
				<path fill="#CE1527" d="M244.815,465.96c0-5.714-5.134-10.5-11.409-10.5h-49.263h-23.18c-6.275,0-11.409-4.786-11.409-10.5
					s5.134-10.5,11.409-10.5h23.18h21.872c6.275,0,11.409-4.788,11.409-10.5c0-5.712-5.134-10.5-11.409-10.5h-80.222h-23.18
					c-6.275,0-11.409-4.286-11.409-10s5.134-10,11.409-10h23.18h43.313c6.275,0,11.409-4.786,11.409-10.5s-5.134-10.5-11.409-10.5
					h-12.903c-6.275,0-11.409-4.786-11.409-10.5s5.134-10.5,11.409-10.5h23.18h42.112c6.275,0,11.409-4.788,11.409-10.5
					c0-5.712-5.134-10.5-11.409-10.5h-29.022h-23.18c-6.275,0-11.409-4.286-11.409-10s5.134-10,11.409-10h3.383
					c6.275,0,11.409-4.786,11.409-10.5s-5.134-10.5-11.409-10.5h-13.543h-23.18c-6.275,0-11.409-4.786-11.409-10.5
					s5.134-10.5,11.409-10.5h23.18h33.783c6.275,0,11.409-4.788,11.409-10.5c0-5.712-5.134-10.5-11.409-10.5h-74.263h-23.18
					c-6.275,0-11.409-4.786-11.409-10.5s5.134-10.5,11.409-10.5h23.18h31.403c6.271,0,11.402-4.518,11.408-10.228
					c-0.006-5.709-5.089-10.207-11.309-10.207c-5.513,0-10.126-3.599-11.108-8.393c-0.127-0.618-0.201-1.252-0.201-1.905
					c0-0.004,0-0.007,0-0.01c0-5.709,5.137-10.257,11.408-10.257c-2.268,0-4.382,0.599-6.164,1.625
					c-0.067,0.039-0.139,0.072-0.206,0.112c-0.146,0.088-0.283,0.189-0.424,0.283c-0.153,0.102-0.311,0.198-0.458,0.306
					c-0.069,0.051-0.132,0.109-0.2,0.162c-0.209,0.162-0.417,0.323-0.612,0.498c-0.047,0.042-0.088,0.09-0.135,0.133
					c-0.207,0.192-0.412,0.387-0.602,0.593c-0.105,0.114-0.198,0.238-0.298,0.357c-0.12,0.142-0.245,0.28-0.357,0.428
					c-1.232,1.633-1.953,3.609-1.953,5.75c0-1.541,0.383-2.991,1.05-4.294c1.807-3.53,5.764-5.952,10.347-5.952h0.011h23.169h45.693
					c6.275,0,11.409-4.788,11.409-10.5s-5.134-10.5-11.409-10.5h-14.733h-23.18c-6.275,0-11.409-4.151-11.409-9.5
					s5.134-9.5,11.409-9.5h4.433c6.275,0,11.409-4.788,11.409-10.5s-5.134-10.5-11.409-10.5h-45.693h-23.18
					c-6.275,0-11.409-4.785-11.409-10.5c0-5.714,5.134-10.5,11.409-10.5h6.953c6.275,0,11.409-4.785,11.409-10.5
					c0-5.714-5.134-10.5-11.409-10.5h-18.853c-6.275,0-11.409-4.286-11.409-10s5.134-10,11.409-10h23.18h68.313
					c6.275,0,11.409-4.788,11.409-10.5s-5.134-10.5-11.409-10.5h-36.163h-23.18c-6.275,0-11.409-4.786-11.409-10.5
					s5.134-10.5,11.409-10.5h6.953c6.275,0,11.409-4.785,11.409-10.5c0-5.714-5.134-10.5-11.409-10.5h-19.503h-23.18
					c-6.275,0-11.409-4.786-11.409-10.5s5.134-10.5,11.409-10.5h23.18h80.222c6.275,0,11.409-4.288,11.409-10s-5.134-10-11.409-10
					h-42.112h-23.18c-6.275,0-11.409-4.786-11.409-10.5s5.134-10.5,11.409-10.5h23.18h1.633c6.275,0,11.409-4.785,11.409-10.5
					c0-5.714-5.134-10.5-11.409-10.5h-27.833h-23.18c-6.275,0-11.409-4.785-11.409-10.5c0-5.714,5.134-10.5,11.409-10.5h23.18
					h52.833c6.275,0,11.409-4.288,11.409-10s-5.134-10-11.409-10h-7.583h-23.18c-6.275,0-11.409-4.785-11.409-10.5
					c0-5.714,5.134-10.5,11.409-10.5h23.18h33.783c6.275,0,11.409-4.786,11.409-10.5s-5.134-10.5-11.409-10.5h-413.633h-23.18
					c-6.275,0-11.409,4.786-11.409,10.5s5.134,10.5,11.409,10.5h23.18h49.263c6.275,0,11.409,4.786,11.409,10.5
					c0,5.715-5.134,10.5-11.409,10.5h-21.872h-23.18c-6.275,0-11.409,4.288-11.409,10s5.134,10,11.409,10h23.18h80.222
					c6.275,0,11.409,4.786,11.409,10.5c0,5.715-5.134,10.5-11.409,10.5h-43.312h-23.18c-6.275,0-11.409,4.786-11.409,10.5
					c0,5.715,5.134,10.5,11.409,10.5h12.903c6.275,0,11.409,4.786,11.409,10.5s-5.134,10.5-11.409,10.5h-42.113h-23.18
					c-6.275,0-11.409,4.288-11.409,10s5.134,10,11.409,10h23.18h29.023c6.275,0,11.409,4.786,11.409,10.5s-5.134,10.5-11.409,10.5
					h-3.383c-6.275,0-11.409,4.786-11.409,10.5c0,5.715,5.134,10.5,11.409,10.5h23.18h13.543c6.275,0,11.409,4.786,11.409,10.5
					s-5.134,10.5-11.409,10.5h-33.783h-23.18c-6.275,0-11.409,4.788-11.409,10.5s5.134,10.5,11.409,10.5h23.18h74.263
					c6.275,0,11.409,4.286,11.409,10s-5.134,10-11.409,10h-31.403c-0.751,0-1.484,0.073-2.195,0.203
					c0.709-0.131,1.442-0.203,2.195-0.203h-23.18c-6.275,0-11.409,4.771-11.409,10.485c0,5.715,5.092,10.527,11.315,10.527
					s11.315,4.766,11.315,10.48c0,5.715-5.134,10.508-11.409,10.508h-45.693h-23.18c-6.275,0-11.409,4.788-11.409,10.5
					s5.134,10.5,11.409,10.5h23.18h14.733c6.275,0,11.409,4.151,11.409,9.5s-5.134,9.5-11.409,9.5h-4.433
					c-6.275,0-11.409,4.788-11.409,10.5s5.134,10.5,11.409,10.5h23.18h45.692c6.275,0,11.409,4.786,11.409,10.5
					s-5.134,10.5-11.409,10.5h-6.953c-6.275,0-11.409,4.286-11.409,10s5.134,10,11.409,10h18.853c6.275,0,11.409,4.786,11.409,10.5
					s-5.134,10.5-11.409,10.5h-68.312h-23.18c-6.275,0-11.409,4.788-11.409,10.5c0,5.712,5.134,10.5,11.409,10.5h23.18h36.163
					c6.275,0,11.409,4.786,11.409,10.5s-5.134,10.5-11.409,10.5h-6.953c-6.275,0-11.409,4.786-11.409,10.5s5.134,10.5,11.409,10.5
					h23.18h19.503c6.275,0,11.409,4.286,11.409,10s-5.134,10-11.409,10h-80.223h-23.18c-6.275,0-11.409,4.788-11.409,10.5
					c0,5.712,5.134,10.5,11.409,10.5h23.18h42.113c6.275,0,11.409,4.786,11.409,10.5s-5.134,10.5-11.409,10.5h-1.632h-23.18
					c-6.275,0-11.409,4.786-11.409,10.5s5.134,10.5,11.409,10.5h23.18h27.833c6.275,0,11.409,4.286,11.409,10s-5.134,10-11.409,10
					h-52.833h-23.18c-6.275,0-11.409,4.788-11.409,10.5c0,5.712,5.134,10.5,11.409,10.5h23.18h7.583
					c6.275,0,11.409,4.786,11.409,10.5s-5.134,10.5-11.409,10.5h-33.783h-23.18c-6.275,0-11.409,4.786-11.409,10.5
					s5.134,10.5,11.409,10.5h23.18h413.633C239.681,476.46,244.815,471.674,244.815,465.96z"/>
				<path fill="#212062" d="M161.847,216.221c0-5.714-5.091-10.197-11.315-10.197c6.109,0,11.121,4.342,11.298,9.906
					c0.003,0.101,0.017,0.199,0.017,0.301C161.847,216.228,161.847,216.225,161.847,216.221z"/>
			</g>
		</g>
	</g>
</g>
<g id="Warstwa_11" display="none">
</g>
<g id="Warstwa_4_kopia_2" display="none">
	<circle display="inline" fill="#F82530" cx="165.973" cy="165.973" r="165.973"/>
	
		<text transform="matrix(1 0 0 1 174.8467 142.4595)" display="inline" fill="#F5422E" font-family="'MyriadPro-Regular'" font-size="12">f5422e</text>
</g>
<g id="Warstwa_4_kopia" display="none">
	<g display="inline">
		<g>
			<defs>
				<circle id="SVGID_3_" cx="165.973" cy="165.973" r="165.973"/>
			</defs>
			<clipPath id="SVGID_4_">
				<use xlink:href="#SVGID_3_"  overflow="visible"/>
			</clipPath>
			<g clip-path="url(#SVGID_4_)">
				<path fill="#D72233" d="M217.459,85.959c0-5.335-4.518-9.5-10.039-9.5h-11.354c-5.522,0-10.039-4.165-10.039-9.5
					s4.518-9.5,10.039-9.5h-28.599c-5.522,0-10.039,4.165-10.039,9.5s4.518,9.5,10.039,9.5h11.354c5.522,0,10.039,4.165,10.039,9.5
					s-4.518,9.5-10.039,9.5h28.599C212.941,95.459,217.459,91.295,217.459,85.959z"/>
				<path fill="#D72233" d="M165.075,181.959c0-5.333,4.518-9.5,10.039-9.5h-28.599c-5.522,0-10.039,4.167-10.039,9.5
					s4.518,9.5,10.039,9.5h28.599C169.593,191.459,165.075,187.292,165.075,181.959z"/>
				<path fill="#D72233" d="M190.339,491.959c0-5.335,4.518-10.5,10.039-10.5h21.834c5.522,0,10.039-3.665,10.039-9
					c0-5.335-4.518-9-10.039-9h-28.599c5.522,0,10.039,3.665,10.039,9c0,5.335-4.518,9-10.039,9h-21.834
					c-5.522,0-10.039,5.165-10.039,10.5c0,5.335,4.518,10.5,10.039,10.5h28.599C194.856,502.46,190.339,497.295,190.339,491.959z"/>
				<path fill="#D72233" d="M208.149,414.96c0-5.335,4.518-9.5,10.039-9.5h6.118c5.522,0,10.039-4.665,10.039-10
					c0-5.335-4.518-10-10.039-10h-28.599c5.522,0,10.039,4.665,10.039,10c0,5.335-4.518,10-10.039,10h-6.118
					c-5.522,0-10.039,4.165-10.039,9.5c0,5.335,4.518,9.5,10.039,9.5h28.599C212.667,424.46,208.149,420.295,208.149,414.96z"/>
				<path fill="#D72233" d="M154.718,453.46c0-5.333,4.518-10,10.039-10h-28.599c-5.522,0-10.039,4.667-10.039,10
					s4.518,10,10.039,10h28.599C159.236,463.46,154.718,458.792,154.718,453.46z"/>
				<path fill="#D72233" d="M262.636,356.46c0-5.335-4.518-10-10.039-10h-16.589c-5.522,0-10.039-4.165-10.039-9.5
					c0-5.335,4.518-9.5,10.039-9.5h6.118c5.522,0,10.039-4.165,10.039-9.5c0-5.335-4.518-9.5-10.039-9.5h-28.599
					c5.522,0,10.039,4.165,10.039,9.5c0,5.335-4.518,9.5-10.039,9.5h-6.118c-5.522,0-10.039,4.165-10.039,9.5
					c0,5.335,4.518,9.5,10.039,9.5h16.589c5.522,0,10.039,4.665,10.039,10c0,5.335-4.518,10-10.039,10h28.599
					C258.119,366.46,262.636,361.795,262.636,356.46z"/>
				<path fill="#D72233" d="M270.899,200.959c0-5.335-4.518-9.5-10.039-9.5h-28.599c5.522,0,10.039,4.165,10.039,9.5
					s-4.518,9.5-10.039,9.5h28.599C266.381,210.459,270.899,206.295,270.899,200.959z"/>
				<path fill="#D72233" d="M162.048,375.959c0-5.333,4.518-9.5,10.039-9.5h-28.599c-5.522,0-10.039,4.167-10.039,9.5
					s4.518,9.5,10.039,9.5h28.599C166.566,385.46,162.048,381.292,162.048,375.959z"/>
				<path fill="#D72233" d="M139.926,104.459c0-5.333,4.518-9,10.039-9h-28.599c-5.522,0-10.039,3.667-10.039,9s4.518,9,10.039,9
					h28.599C144.443,113.459,139.926,109.792,139.926,104.459z"/>
				<path fill="#D72233" d="M235.278,162.959c0-5.335-4.518-9.5-10.039-9.5h-32.314c-5.522,0-10.039-4.165-10.039-9.5
					s4.518-9.5,10.039-9.5h2.977c5.522,0,10.039-5.165,10.039-10.5c0-5.335-4.518-10.5-10.039-10.5h-28.599
					c5.522,0,10.039,5.165,10.039,10.5c0,5.335-4.518,10.5-10.039,10.5h-2.977c-5.522,0-10.039,4.165-10.039,9.5
					s4.518,9.5,10.039,9.5h32.314c5.522,0,10.039,4.165,10.039,9.5s-4.518,9.5-10.039,9.5h28.599
					C230.761,172.459,235.278,168.295,235.278,162.959z"/>
				<rect x="418.326" y="346.459" fill="#D72233" width="19.433" height="0.001"/>
				<path fill="#D72233" d="M265.787,433.96c0-5.335-4.518-9.5-10.039-9.5h-28.599c5.522,0,10.039,4.165,10.039,9.5
					c0,5.335-4.518,9.5-10.039,9.5h28.599C261.269,443.46,265.787,439.295,265.787,433.96z"/>
				<path fill="#D72233" d="M171.481,297.959c0-5.333,4.518-10.5,10.039-10.5h3.9c5.522,0,10.039-4.006,10.039-9
					c0-4.994-4.518-9-10.039-9h-28.599c5.522,0,10.039,4.006,10.039,9c0,4.994-4.518,9-10.039,9h-3.9
					c-5.522,0-10.039,5.167-10.039,10.5s4.518,10.5,10.039,10.5h28.599C175.999,308.46,171.481,303.292,171.481,297.959z"/>
				<path fill="#D72233" d="M264.616,47.459c0-5.335-4.518-10-10.039-10h-28.599c5.522,0,10.039,4.665,10.039,10
					s-4.518,10-10.039,10h28.599C260.099,57.459,264.616,52.795,264.616,47.459z"/>
				<path fill="#D72233" d="M153.548,27.46c0-5.333,4.518-10,10.039-10h-28.599c-5.522,0-10.039,4.667-10.039,10s4.518,10,10.039,10
					h28.599C158.065,37.459,153.548,32.792,153.548,27.46z"/>
				<path fill="#D72233" d="M129.445-11.541c0-5.335,4.518-10,10.039-10h-28.599c-5.522,0-10.039,4.665-10.039,10
					s4.518,10,10.039,10h28.599C133.963-1.541,129.445-6.205,129.445-11.541z"/>
				<path fill="#D72233" d="M213.27,7.96c0-5.335-4.518-9.5-10.039-9.5h-28.599c5.522,0,10.039,4.165,10.039,9.5
					s-4.518,9.5-10.039,9.5h28.599C208.753,17.459,213.27,13.295,213.27,7.96z"/>
				<path fill="#D72233" d="M215.488,549.459c0-5.335-4.518-10-10.039-10h-27.07c-5.522,0-10.039-4.167-10.039-9.5
					s4.518-9.5,10.039-9.5H149.78c-5.522,0-10.039,4.167-10.039,9.5s4.518,9.5,10.039,9.5h27.07c5.522,0,10.039,4.665,10.039,10
					s-4.518,10-10.039,10h28.599C210.97,559.459,215.488,554.795,215.488,549.459z"/>
				<path fill="#D72233" d="M255.306,511.46c0-5.335-4.518-9-10.039-9h-28.599c5.522,0,10.039,3.665,10.039,9
					c0,5.335-4.518,9-10.039,9h28.599C250.789,520.459,255.306,516.795,255.306,511.46z"/>
				<path fill="#D72233" d="M145.285,568.959c0-5.335,4.518-9.5,10.039-9.5h-28.599c-5.522,0-10.039,4.165-10.039,9.5
					s4.518,9.5,10.039,9.5h28.599C149.802,578.459,145.285,574.295,145.285,568.959z"/>
				<path fill="#D72233" d="M142.02,259.46c0-5.333,4.518-10,10.039-10H123.46c-5.522,0-10.039,4.667-10.039,10
					c0,5.333,4.518,10,10.039,10h28.599C146.538,269.46,142.02,264.792,142.02,259.46z"/>
				<path fill="#D72233" d="M222.704,240.131c0-5.335-4.481-9.515-9.957-9.515s-9.957-4.743-9.957-10.078
					s4.518-10.078,10.039-10.078H184.23c-5.522,0-10.039,4.849-10.039,10.184s4.481,10.026,9.957,10.026s9.957,4.047,9.957,9.382
					s-4.518,9.408-10.039,9.408h28.599C218.186,249.459,222.704,245.466,222.704,240.131z"/>
				<path fill="#C4102E" d="M530.108,559.459H501.51h-35.148c-5.522,0-10.039-4.665-10.039-10s4.518-10,10.039-10h11.046h28.599
					c5.522,0,10.039-4.167,10.039-9.5s-4.518-9.5-10.039-9.5h-28.599h-62.392c-5.522,0-10.039-3.665-10.039-9s4.518-9,10.039-9
					h29.912h28.599c5.522,0,10.039-5.165,10.039-10.5c0-5.335-4.518-10.5-10.039-10.5h-11.354c-5.522,0-10.039-3.665-10.039-9
					c0-5.335,4.518-9,10.039-9h28.856h28.599c5.522,0,10.039-4.667,10.039-10s-4.518-10-10.039-10h-28.599h-17.337
					c-5.522,0-10.039-4.165-10.039-9.5c0-5.335,4.518-9.5,10.039-9.5h2.977c5.522,0,10.039-4.165,10.039-9.5
					c0-5.335-4.518-9.5-10.039-9.5H448.07h-3.716c-5.522,0-10.039-4.665-10.039-10c0-5.335,4.518-10,10.039-10h21.526h28.599
					c5.522,0,10.039-4.167,10.039-9.5s-4.518-9.5-10.039-9.5H465.88h-57.147c-5.522,0-10.039-4.665-10.039-10
					c0-5.335,4.517-10,10.038-10h0.001h19.433h28.597c5.522,0,10.039-4.608,10.039-9.943c0-5.335-4.481-9.712-9.957-9.712
					s-9.957-3.851-9.957-9.186c0-5.335,4.518-9.158,10.039-9.158h32.007h28.599c5.522,0,10.039-5.167,10.039-10.5
					s-4.518-10.5-10.039-10.5h-28.599h-4.763c-5.522,0-10.039-4.006-10.039-9c0-4.994,4.518-9,10.039-9h3.901
					c5.522,0,10.039-4.667,10.039-10c0-5.333-4.518-10-10.039-10h-28.599h-32.006c-5.522,0-10.039-3.665-10.039-9s4.518-9,10.039-9
					h6.118c5.522,0,10.039-5.165,10.039-10.5s-4.518-10.5-10.039-10.5h-16.59c-5.522,0-10.039-4.165-10.039-9.5
					s4.518-9.5,10.039-9.5h51.911h28.599c5.522,0,10.039-4.167,10.039-9.5s-4.518-9.5-10.039-9.5h-28.599h-23.62
					c-5.522,0-10.039-4.165-10.039-9.5s4.518-9.5,10.039-9.5h6.118c5.522,0,10.039-4.165,10.039-9.5s-4.518-9.5-10.039-9.5h-28.599
					h-8.96c-5.522,0-10.039-5.165-10.039-10.5c0-5.335,4.518-10.5,10.039-10.5h62.392h28.599c5.522,0,10.039-3.667,10.039-9
					s-4.518-9-10.039-9h-28.599h-28.856c-5.522,0-10.039-4.165-10.039-9.5s4.518-9.5,10.039-9.5h21.834
					c5.522,0,10.039-4.165,10.039-9.5s-4.518-9.5-10.039-9.5h-28.599h-16.29c-5.522,0-10.039-4.665-10.039-10s4.518-10,10.039-10
					h38.289h28.599c5.522,0,10.039-4.667,10.039-10s-4.518-10-10.039-10h-27.07c-5.522,0-10.039-4.165-10.039-9.5
					s4.518-9.5,10.039-9.5h21.526h28.599c5.522,0,10.039-4.665,10.039-10s-4.518-10-10.039-10H485.67H129.891
					c-5.522,0-10.039,4.665-10.039,10s4.518,10,10.039,10h35.148h28.599c5.522,0,10.039,4.165,10.039,9.5s-4.518,9.5-10.039,9.5
					h-28.599h-11.046c-5.522,0-10.039,4.667-10.039,10s4.518,10,10.039,10h62.391h28.599c5.522,0,10.039,4.665,10.039,10
					s-4.518,10-10.039,10h-28.599h-29.912c-5.522,0-10.039,4.165-10.039,9.5s4.518,9.5,10.039,9.5h11.354
					c5.522,0,10.039,4.165,10.039,9.5s-4.518,9.5-10.039,9.5h-28.599h-28.856c-5.522,0-10.039,3.667-10.039,9s4.518,9,10.039,9
					h17.337h28.599c5.522,0,10.039,5.165,10.039,10.5c0,5.335-4.518,10.5-10.039,10.5h-2.977c-5.522,0-10.039,4.165-10.039,9.5
					s4.518,9.5,10.039,9.5h32.314c5.522,0,10.039,4.165,10.039,9.5s-4.518,9.5-10.039,9.5h-28.599h-21.526
					c-5.522,0-10.039,4.167-10.039,9.5s4.518,9.5,10.039,9.5h57.147h28.599c5.522,0,10.039,4.165,10.039,9.5s-4.518,9.5-10.039,9.5
					h-28.599h-19.432c-5.522,0-10.039,4.849-10.039,10.184s4.481,10.026,9.957,10.026s9.957,4.047,9.957,9.382
					s-4.518,9.408-10.039,9.408h-28.599h-32.006c-5.522,0-10.039,4.667-10.039,10c0,5.333,4.518,10,10.039,10h4.763h28.599
					c5.522,0,10.039,4.006,10.039,9c0,4.994-4.518,9-10.039,9h-3.9c-5.522,0-10.039,5.167-10.039,10.5s4.518,10.5,10.039,10.5
					h32.006h28.599c5.522,0,10.039,4.165,10.039,9.5c0,5.335-4.518,9.5-10.039,9.5h-6.118c-5.522,0-10.039,4.165-10.039,9.5
					c0,5.335,4.518,9.5,10.039,9.5h16.589c5.522,0,10.039,4.665,10.039,10c0,5.335-4.518,10-10.039,10h-28.599h-51.911
					c-5.522,0-10.039,4.167-10.039,9.5s4.518,9.5,10.039,9.5h23.62h28.599c5.522,0,10.039,4.665,10.039,10
					c0,5.335-4.518,10-10.039,10h-6.118c-5.522,0-10.039,4.165-10.039,9.5c0,5.335,4.518,9.5,10.039,9.5h8.96h28.599
					c5.522,0,10.039,4.165,10.039,9.5c0,5.335-4.518,9.5-10.039,9.5h-28.599h-62.391c-5.522,0-10.039,4.667-10.039,10
					s4.518,10,10.039,10h28.856h28.599c5.522,0,10.039,3.665,10.039,9c0,5.335-4.518,9-10.039,9h-21.834
					c-5.522,0-10.039,5.165-10.039,10.5c0,5.335,4.518,10.5,10.039,10.5h16.29h28.599c5.522,0,10.039,3.665,10.039,9
					s-4.518,9-10.039,9h-28.599h-38.289c-5.522,0-10.039,4.167-10.039,9.5s4.518,9.5,10.039,9.5h27.07
					c5.522,0,10.039,4.665,10.039,10s-4.518,10-10.039,10h-28.599H145.73c-5.522,0-10.039,4.165-10.039,9.5s4.518,9.5,10.039,9.5
					h355.78h28.599c5.522,0,10.039-4.165,10.039-9.5S535.63,559.459,530.108,559.459z"/>
			</g>
		</g>
	</g>
</g>
<g id="Warstwa_3">
</g>
<g id="Warstwa_5" display="none">
	<g display="inline">
		<path fill="#D72233" d="M558.568,687c6.275,0,11.409,4.786,11.409,10.5s-5.134,10.5-11.409,10.5H121.755
			c-6.275,0-11.409-4.786-11.409-10.5s5.134-10.5,11.409-10.5h56.963c6.275,0,11.409-4.786,11.409-10.5s-5.134-10.5-11.409-10.5
			h-30.763c-6.275,0-11.409-4.788-11.409-10.5s5.134-10.5,11.409-10.5h76.013c6.275,0,11.409-4.286,11.409-10s-5.134-10-11.409-10
			h-51.013c-6.275,0-11.409-4.786-11.409-10.5s5.134-10.5,11.409-10.5h24.813c6.275,0,11.409-4.786,11.409-10.5
			s-5.134-10.5-11.409-10.5h-65.293c-6.275,0-11.409-4.788-11.409-10.5S126.2,562,132.475,562h103.403
			c6.275,0,11.409-4.286,11.409-10s-5.134-10-11.409-10h-42.683c-6.275,0-11.409-4.786-11.409-10.5s5.134-10.5,11.409-10.5h6.953
			c6.275,0,11.409-4.786,11.409-10.5s-5.134-10.5-11.409-10.5h-59.343c-6.275,0-11.409-4.788-11.409-10.5
			c0-5.712,5.134-10.5,11.409-10.5h91.493c6.275,0,11.409-4.786,11.409-10.5s-5.134-10.5-11.409-10.5h-18.853
			c-6.275,0-11.409-4.286-11.409-10s5.134-10,11.409-10h6.953c6.275,0,11.409-4.786,11.409-10.5s-5.134-10.5-11.409-10.5h-68.873
			c-6.275,0-11.409-4.788-11.409-10.5c0-5.712,5.134-10.5,11.409-10.5h4.433c6.275,0,11.409-4.151,11.409-9.5s-5.134-9.5-11.409-9.5
			h-37.913c-6.275,0-11.409-4.788-11.409-10.5c0-5.712,5.134-10.5,11.409-10.5h68.873c6.275,0,11.409-4.73,11.409-10.445
			c0-5.715-5.092-10.418-11.315-10.418s-11.315-4.854-11.315-10.569c0-5.714,5.134-10.569,11.409-10.569h54.583
			c6.275,0,11.409-4.286,11.409-10s-5.134-10-11.409-10h-97.443c-6.275,0-11.409-4.788-11.409-10.5c0-5.712,5.134-10.5,11.409-10.5
			h56.963c6.275,0,11.409-4.786,11.409-10.5s-5.134-10.5-11.409-10.5h-36.723c-6.275,0-11.409-4.785-11.409-10.5
			s5.134-10.5,11.409-10.5h3.383c6.275,0,11.409-4.786,11.409-10.5s-5.134-10.5-11.409-10.5h-52.203
			c-6.275,0-11.409-4.288-11.409-10s5.134-10,11.409-10h65.293c6.275,0,11.409-4.786,11.409-10.5s-5.134-10.5-11.409-10.5h-12.903
			c-6.275,0-11.409-4.785-11.409-10.5s5.134-10.5,11.409-10.5h66.493c6.275,0,11.409-4.785,11.409-10.5s-5.134-10.5-11.409-10.5
			H131.145c-6.275,0-11.409-4.288-11.409-10s5.134-10,11.409-10h45.053c6.275,0,11.409-4.785,11.409-10.5S182.473,86,176.198,86
			h-72.443c-6.275,0-11.409-4.786-11.409-10.5S97.481,65,103.755,65h436.813c6.275,0,11.409,4.786,11.409,10.5
			S546.843,86,540.568,86h-56.963c-6.275,0-11.409,4.785-11.409,10.5s5.134,10.5,11.409,10.5h30.763c6.275,0,11.409,4.288,11.409,10
			s-5.134,10-11.409,10h-76.013c-6.275,0-11.409,4.785-11.409,10.5s5.134,10.5,11.409,10.5h51.013c6.275,0,11.409,4.785,11.409,10.5
			s-5.134,10.5-11.409,10.5h-24.813c-6.275,0-11.409,4.786-11.409,10.5s5.134,10.5,11.409,10.5h65.293
			c6.275,0,11.409,4.288,11.409,10s-5.134,10-11.409,10H426.445c-6.275,0-11.409,4.786-11.409,10.5s5.134,10.5,11.409,10.5h42.683
			c6.275,0,11.409,4.785,11.409,10.5s-5.134,10.5-11.409,10.5h-6.953c-6.275,0-11.409,4.786-11.409,10.5S455.9,273,462.175,273
			h59.343c6.275,0,11.409,4.788,11.409,10.5c0,5.712-5.134,10.5-11.409,10.5h-91.493c-6.275,0-11.409,4.286-11.409,10
			s5.134,10,11.409,10h18.853c6.275,0,11.409,4.785,11.409,10.5c0,5.715-5.134,10.5-11.409,10.5h-6.953
			c-6.275,0-11.409,4.785-11.409,10.5c0,5.715,5.134,10.5,11.409,10.5h68.873c6.275,0,11.409,4.788,11.409,10.5
			c0,5.712-5.134,10.5-11.409,10.5h-4.433c-6.275,0-11.409,4.151-11.409,9.5s5.134,9.5,11.409,9.5h37.913
			c6.275,0,11.409,4.788,11.409,10.5c0,5.712-5.134,10.5-11.409,10.5h-68.873c-6.275,0-11.409,4.616-11.409,10.33
			s5.092,10.36,11.315,10.36c6.223,0,11.315,4.441,11.315,10.155c0,5.715-5.134,10.155-11.409,10.155h-54.583
			c-6.275,0-11.409,4.786-11.409,10.5s5.134,10.5,11.409,10.5h97.443c6.275,0,11.409,4.788,11.409,10.5
			c0,5.712-5.134,10.5-11.409,10.5h-56.963c-6.275,0-11.409,4.786-11.409,10.5c0,5.714,5.134,10.5,11.409,10.5h36.723
			c6.275,0,11.409,4.786,11.409,10.5s-5.134,10.5-11.409,10.5h-3.383c-6.275,0-11.409,4.286-11.409,10s5.134,10,11.409,10h52.203
			c6.275,0,11.409,4.788,11.409,10.5s-5.134,10.5-11.409,10.5h-65.293c-6.275,0-11.409,4.786-11.409,10.5s5.134,10.5,11.409,10.5
			h12.903c6.275,0,11.409,4.786,11.409,10.5s-5.134,10.5-11.409,10.5h-66.493c-6.275,0-11.409,4.286-11.409,10s5.134,10,11.409,10
			h103.403c6.275,0,11.409,4.788,11.409,10.5s-5.134,10.5-11.409,10.5h-45.053c-6.275,0-11.409,4.786-11.409,10.5
			s5.134,10.5,11.409,10.5H558.568z"/>
	</g>
</g>
</svg>
